<?xml version="1.0" encoding="utf-8"?>
<!-- Generator: Adobe Illustrator 23.0.3, SVG Export Plug-In . SVG Version: 6.00 Build 0)  -->
<svg version="1.1" id="Layer_1" xmlns="http://www.w3.org/2000/svg" xmlns:xlink="http://www.w3.org/1999/xlink" x="0px" y="0px"
	 viewBox="0 0 352.29 330.83" style="enable-background:new 0 0 352.29 330.83;" xml:space="preserve">
<style type="text/css">
	.st0{fill:#FFFFFF;}
	.st1{opacity:0.5;}
</style>
<g>
	<g>
		<path class="st0" d="M84.52,316.77c-32.94,0-59.73-26.8-59.73-59.73V73.79c0-32.94,26.8-59.73,59.73-59.73h183.25
			c32.94,0,59.73,26.8,59.73,59.73v183.25c0,32.94-26.8,59.73-59.73,59.73H84.52z"/>
		<path d="M267.77,14.56c32.66,0,59.23,26.57,59.23,59.23v183.25c0,32.66-26.57,59.23-59.23,59.23H84.52
			c-32.66,0-59.23-26.57-59.23-59.23V73.79c0-32.66,26.57-59.23,59.23-59.23H267.77 M267.77,13.56H84.52
			c-33.27,0-60.23,26.97-60.23,60.23v183.25c0,33.27,26.97,60.23,60.23,60.23h183.25c33.27,0,60.23-26.97,60.23-60.23V73.79
			C328,40.52,301.04,13.56,267.77,13.56L267.77,13.56z"/>
	</g>
	<g>
		<g>
			<g>
				<g>
					<g>
						<g>
							<path class="st0" d="M226.23,158.57c-0.58,0-1.08-0.96-1.37-2.63c-0.26-1.47-0.26-2.96-0.26-2.98
								c0.14-4.22,4.85-7.65,4.9-7.68c0.38-0.24,1.62-0.89,2.47-0.89c0.17,0,0.32,0.03,0.42,0.08c0.17,0.08,0.18,0.16,0.19,0.19
								c0.05,0.28-0.29,0.8-0.48,1.01l0.7,0.71c0,0,0.21-0.16,0.53-0.16c0.42,0,0.87,0.28,1.32,0.82c0.25,0.3,0.25,0.42,0.25,0.42
								c0,0,0,0-0.01,0c-0.05,0-0.29,0.08-0.81,0.08c-0.37,0-0.68-0.04-0.69-0.04l-0.23,0.97c1.33,0.44,2.38,1.2,2.63,1.89
								c0.08,0.24,0.07,0.44-0.06,0.63c-0.11,0.18-0.37,0.27-0.77,0.27c-0.89,0-2-0.46-2.01-0.47l-1.59-0.67l0.98,1.41
								c0.93,1.34,2.12,3.56,1.86,4.32c-0.03,0.08-0.06,0.13-0.18,0.16c-0.1,0.03-0.23,0.05-0.37,0.05c-1.6,0-4.79-1.84-5.88-2.54
								l-0.95-0.61l0.19,1.12c0.21,1.27,0.31,3.57-0.32,4.31C226.57,158.5,226.42,158.57,226.23,158.57z"/>
							<path d="M231.97,144.89c0.02,0,0.04,0,0.06,0c-0.07,0.14-0.18,0.32-0.3,0.45l1.4,1.42c0,0,0.1-0.04,0.2-0.04
								c0.18,0,0.4,0.11,0.63,0.32c-0.28-0.01-0.5-0.04-0.5-0.04l-0.45,1.94c1.3,0.43,2.15,1.13,2.32,1.58
								c0.04,0.11,0.02,0.15,0.01,0.18c0,0-0.09,0.06-0.37,0.06c-0.65,0-1.54-0.31-1.82-0.43l-3.18-1.34l1.98,2.83
								c0.97,1.4,1.79,3.11,1.81,3.75c-0.03,0-0.06,0-0.09,0c-1.31,0-4.14-1.51-5.61-2.46l-1.9-1.23l0.37,2.23
								c0.21,1.28,0.26,3.35-0.21,3.9c-0.03,0.04-0.04,0.04-0.09,0.04c-0.43,0-1.12-2.34-1.13-5.07c0.12-3.84,4.31-7.03,4.66-7.29
								C230.3,145.38,231.34,144.89,231.97,144.89 M234.66,146.98C234.66,146.98,234.66,146.98,234.66,146.98 M231.97,143.89
								c-1.18,0-2.76,0.99-2.76,0.99s-4.96,3.54-5.1,8.09c0,0,0,6.11,2.12,6.11c2.13,0,1.28-5.11,1.28-5.11s4.06,2.62,6.15,2.62
								c0.19,0,0.36-0.02,0.52-0.07c1.85-0.57-1.42-5.25-1.42-5.25s1.2,0.5,2.21,0.5c0.5,0,0.96-0.13,1.2-0.5
								c0.71-1.14-0.71-2.56-2.84-3.26c0,0,0.35,0.05,0.76,0.05c0.82,0,1.89-0.19,0.95-1.32c-0.65-0.79-1.25-1-1.7-1
								c-0.53,0-0.85,0.29-0.85,0.29s1.28-1.42,0.14-1.99C232.43,143.93,232.21,143.89,231.97,143.89L231.97,143.89z"/>
						</g>
						<g>
							<g>
								<path class="st0" d="M227.51,153.96c0,0,4.83,3.12,6.67,2.55c0.07-0.02,0.13-0.05,0.18-0.08l0,0
									c-3.07,0.54-6.53-3.15-6.85-3.28s-0.78-0.04-0.29,2.53s-0.99,3.38-0.99,3.38C228.36,159.07,227.51,153.96,227.51,153.96z"/>
								<path d="M227.35,153.12c-0.29,0-0.54,0.4-0.13,2.57c0.49,2.57-0.99,3.38-0.99,3.38c2.13,0,1.28-5.11,1.28-5.11
									s4.06,2.62,6.15,2.62c0.19,0,0.36-0.02,0.52-0.07c0.07-0.02,0.13-0.05,0.18-0.08c-0.21,0.04-0.42,0.05-0.63,0.05
									c-2.9,0-5.92-3.22-6.22-3.33C227.46,153.14,227.4,153.12,227.35,153.12L227.35,153.12z"/>
							</g>
							<g>
								<path class="st0" d="M233.23,145.97c0.37-0.08,0.71,0.08,1.39,0.32c-1.22-1.08-2.14-0.28-2.14-0.28s0.68-0.76,0.6-1.39l0,0
									c0,0-0.63,1.31-1.12,1.52C231.47,146.34,232.86,146.05,233.23,145.97z"/>
								<path d="M233.08,144.62c0,0-0.63,1.31-1.12,1.52c-0.12,0.05-0.13,0.07-0.06,0.07c0.21,0,1.05-0.17,1.32-0.24
									c0.07-0.01,0.13-0.02,0.2-0.02c0.3,0,0.63,0.14,1.19,0.34c-0.49-0.43-0.93-0.56-1.29-0.56c-0.52,0-0.85,0.28-0.85,0.28
									S233.16,145.25,233.08,144.62L233.08,144.62z"/>
							</g>
							<g>
								<g>
									<path class="st0" d="M233.33,148c0,0,1.9,0.26,2.06-0.44c-0.1,0.02-0.16,0.7-2.16,0.21c-0.48-0.12-0.61,0.12-0.61,0.12
										s2.92,1.23,3.2,1.59C235.28,148.89,234.39,148.35,233.33,148z"/>
									<path d="M235.38,147.56c-0.07,0.01-0.12,0.39-0.95,0.39c-0.29,0-0.68-0.05-1.21-0.17c-0.09-0.02-0.18-0.03-0.25-0.03
										c-0.28,0-0.37,0.15-0.37,0.15s2.75,1.16,3.17,1.55c-0.53-0.57-1.41-1.09-2.46-1.44c0,0,0.34,0.05,0.74,0.05
										C234.62,148.04,235.29,147.96,235.38,147.56L235.38,147.56z M235.78,149.44c0.01,0.01,0.02,0.02,0.03,0.03
										C235.81,149.47,235.8,149.45,235.78,149.44L235.78,149.44z"/>
								</g>
								<g>
									<path class="st0" d="M235.83,149.49c0.05,0.06,0.11,0.14,0.19,0.23C235.95,149.64,235.89,149.56,235.83,149.49z"/>
									<path d="M235.83,149.49c0.05,0.06,0.11,0.14,0.19,0.23C235.95,149.64,235.89,149.56,235.83,149.49L235.83,149.49z"/>
								</g>
							</g>
							<g>
								<path class="st0" d="M234.43,151.73c-0.06-0.02-1.66-0.62-2.1-1.06c-0.45-0.45,0.12,0.98,0.37,1.27
									c0.24,0.29,2.2,2.81,2.04,3.87c0.17-1.47-1.97-4.54-1.97-4.54S233.58,151.61,234.43,151.73z"/>
								<path d="M232.2,150.58c-0.17,0,0.28,1.1,0.5,1.35c0.23,0.27,2.03,2.59,2.05,3.73c0.02-1.52-1.98-4.4-1.98-4.4
									s0.82,0.34,1.67,0.46c-0.06-0.02-1.66-0.62-2.1-1.06C232.27,150.61,232.23,150.58,232.2,150.58L232.2,150.58z
									 M234.74,155.66c0,0.05,0,0.1-0.01,0.15C234.74,155.76,234.74,155.71,234.74,155.66L234.74,155.66z"/>
							</g>
						</g>
					</g>
					<g>
						<path class="st0" d="M224.62,152.7c0.31-4.09,4.8-7.36,4.88-7.42l0,0c0,0,0.12-0.07,0.32-0.18
							C229.36,148.45,226.13,151.46,224.62,152.7z"/>
						<path d="M229,146.33c-0.71,2.01-2.32,3.82-3.61,5.02C226.11,149.12,227.94,147.26,229,146.33 M230.37,144.29
							c-0.65,0.27-1.16,0.59-1.16,0.59s-4.96,3.54-5.1,8.09c0,0,0,0.29,0.02,0.75C224.13,153.72,230.41,149.31,230.37,144.29
							L230.37,144.29z"/>
					</g>
				</g>
				<g>
					<g>
						<g>
							<path class="st0" d="M127.71,170.47c-0.14,0-0.33-0.04-0.5-0.34c-0.61-1.07-0.3-3.97,0.38-5.13l-0.81-0.58
								c-1.08,1.28-4.32,4.6-6.28,4.6c-0.15,0-0.29-0.02-0.42-0.06c-0.23-0.08-0.28-0.18-0.31-0.29c-0.27-1.05,1.89-3.97,3.5-5.71
								l2.17-2.34l-2.79,1.57c-1.06,0.6-4.16,2.15-5.65,2.15c-0.55,0-0.56-0.18-0.57-0.33c-0.09-1.53,3.02-3.93,5-5.07l2.25-1.3
								l-2.57,0.38c-0.01,0-1.13,0.16-2.24,0.16c-1.68,0-1.9-0.36-1.91-0.37c-0.02-0.04,0-0.15,0.1-0.32
								c0.83-1.38,7.41-2.26,11.4-2.49c0.63,0.11,7.1,1.36,7.15,6.23c0.33,1.79,0.78,6.39-1.02,7.19c-0.21,0.09-0.41,0.14-0.59,0.14
								c-1.25,0-1.97-2.36-2.13-3.18l-0.58-3.09l-0.41,3.12c-0.01,0.04-0.56,4.12-2.81,4.99
								C127.96,170.44,127.83,170.47,127.71,170.47z"/>
							<path d="M128.45,155.49c0.82,0.15,6.63,1.38,6.68,5.73l0,0.09l0.02,0.09c0.44,2.31,0.5,6-0.74,6.55
								c-0.14,0.06-0.27,0.1-0.38,0.1c-0.78,0-1.45-1.81-1.63-2.77l-1.15-6.16l-0.82,6.21c-0.14,1.06-0.86,3.96-2.49,4.59
								c-0.12,0.05-0.19,0.05-0.21,0.06c-0.54-0.38-0.44-3.46,0.3-4.73l-1.63-1.15c-1.55,1.83-4.41,4.42-5.9,4.42
								c-0.08,0-0.16-0.01-0.26-0.04c-0.07-0.74,1.51-3.15,3.39-5.18l4.34-4.68l-5.56,3.13c-1.44,0.81-4.17,2.09-5.4,2.09
								c-0.02,0-0.04,0-0.06,0c0.14-1.25,2.87-3.37,4.75-4.47l4.48-2.6l-5.13,0.75c-0.01,0-1.1,0.16-2.17,0.16
								c-0.6,0-0.98-0.05-1.22-0.1C118.68,156.73,123.47,155.79,128.45,155.49 M128.51,154.49c0,0-10.58,0.61-11.86,2.73
								c-0.71,1.18,0.77,1.45,2.23,1.45c1.16,0,2.31-0.17,2.31-0.17s-5.39,3.12-5.25,5.54c0.03,0.58,0.45,0.8,1.06,0.8
								c1.95,0,5.89-2.22,5.89-2.22s-5.54,5.96-2.98,6.81c0.18,0.06,0.38,0.09,0.58,0.09c2.62,0,6.66-4.77,6.66-4.77
								c-0.91,1.56-1.35,6.23,0.56,6.23c0.17,0,0.36-0.04,0.58-0.12c2.56-0.99,3.12-5.39,3.12-5.39s0.67,3.59,2.62,3.59
								c0.24,0,0.51-0.06,0.79-0.18c2.55-1.14,1.32-7.65,1.32-7.65C136.07,155.63,128.51,154.49,128.51,154.49L128.51,154.49z"/>
						</g>
						<g>
							<path class="st0" d="M131.8,164.76c-0.18-0.79-0.72-0.43-0.72,0.14c0,0.57-0.3,2.91-0.3,2.96c0.49-1.26,0.64-2.41,0.64-2.41
								s0.5,2.64,1.86,3.39C132.32,168.17,131.98,165.54,131.8,164.76z"/>
							<path d="M131.46,164.3c-0.19,0-0.37,0.26-0.37,0.6c0,0.57-0.3,2.91-0.3,2.96c0.49-1.26,0.64-2.41,0.64-2.41
								s0.5,2.64,1.86,3.39c-0.95-0.67-1.3-3.3-1.48-4.09C131.72,164.43,131.59,164.3,131.46,164.3L131.46,164.3z"/>
						</g>
						<g class="st1">
							<g>
								<path class="st0" d="M126.38,168.4c0.01-0.08,0.01-0.17,0-0.28c0,0,0-0.01,0-0.01C126.38,168.2,126.38,168.3,126.38,168.4z"
									/>
								<path d="M126.38,168.11C126.38,168.11,126.38,168.11,126.38,168.11C126.38,168.11,126.38,168.11,126.38,168.11
									L126.38,168.11z M126.38,168.11c0,0,0,0.01,0,0.01c0,0,0,0,0,0C126.38,168.12,126.38,168.11,126.38,168.11L126.38,168.11z
									 M126.38,168.12c0,0.09,0,0.19,0,0.28C126.39,168.31,126.39,168.23,126.38,168.12L126.38,168.12z"/>
							</g>
							<g>
								<path class="st0" d="M127.9,164.11c-0.18-0.5-0.57,0-1.25,0.72c-0.68,0.72-2.42,2.81-2.42,2.81l0,0
									c1.62-1.34,2.94-2.89,2.94-2.89c-0.39,0.66-0.69,1.89-0.76,3.08C126.55,166.51,128.06,164.58,127.9,164.11z"/>
								<path d="M127.69,163.91c-0.22,0-0.56,0.4-1.05,0.92c-0.68,0.72-2.42,2.81-2.42,2.81l0,0c1.62-1.34,2.94-2.89,2.94-2.89
									c-0.39,0.66-0.69,1.89-0.76,3.08c0.16-1.31,1.66-3.25,1.5-3.71C127.84,163.97,127.78,163.91,127.69,163.91L127.69,163.91z"
									/>
							</g>
						</g>
						<g class="st1">
							<g>
								<path class="st0" d="M122.78,162.29c-1.15,0.68-3.89,2.16-3.89,2.16v0c1.9-0.64,4.01-1.82,4.01-1.82s-1.48,1.59-2.55,3.25
									c0.85-1.2,3.42-3.43,3.68-3.79C124.31,161.68,123.92,161.61,122.78,162.29z"/>
								<path d="M123.98,161.77c-0.19,0-0.59,0.15-1.2,0.51c-1.15,0.68-3.89,2.16-3.89,2.16v0c1.9-0.64,4.01-1.82,4.01-1.82
									s-1.48,1.59-2.55,3.25c0.85-1.2,3.42-3.43,3.68-3.79C124.16,161.89,124.15,161.77,123.98,161.77L123.98,161.77z"/>
							</g>
							<g>
								<path class="st0" d="M120.06,166.32c0.04-0.05,0.07-0.11,0.11-0.18C120.13,166.2,120.09,166.26,120.06,166.32z"/>
								<path d="M120.17,166.15c-0.04,0.06-0.07,0.12-0.11,0.18C120.1,166.27,120.13,166.21,120.17,166.15L120.17,166.15z"/>
							</g>
							<g>
								<path class="st0" d="M120.22,166.06c0.01-0.02,0.02-0.04,0.04-0.06C120.25,166.02,120.23,166.04,120.22,166.06z"/>
								<path d="M120.26,166c-0.01,0.02-0.03,0.04-0.04,0.06C120.23,166.04,120.25,166.02,120.26,166L120.26,166z"/>
							</g>
						</g>
						<g class="st1">
							<g>
								<path class="st0" d="M122.17,157.92c-0.39,0.21-3.64,0.74-3.65,0.74c1.28,0.04,2.68-0.16,2.68-0.16s-1.82,1.06-3.32,2.42
									c0.98-0.83,3.82-2.26,4.15-2.46C122.38,158.24,122.56,157.7,122.17,157.92z"/>
								<path d="M122.31,157.87c-0.04,0-0.08,0.02-0.15,0.05c-0.39,0.21-3.64,0.74-3.65,0.74c0.12,0,0.24,0.01,0.37,0.01
									c1.16,0,2.31-0.17,2.31-0.17s-1.82,1.06-3.32,2.42c0.98-0.83,3.82-2.26,4.15-2.46C122.32,158.28,122.5,157.87,122.31,157.87
									L122.31,157.87z"/>
							</g>
							<g>
								<path class="st0" d="M117.87,160.92c-0.06,0.05-0.11,0.1-0.17,0.15c0,0,0,0,0,0C117.75,161.03,117.8,160.98,117.87,160.92z"
									/>
								<path d="M117.87,160.92c-0.06,0.05-0.12,0.1-0.16,0.15C117.76,161.02,117.81,160.97,117.87,160.92L117.87,160.92z
									 M117.7,161.08C117.7,161.08,117.7,161.08,117.7,161.08C117.7,161.08,117.7,161.08,117.7,161.08
									C117.7,161.08,117.7,161.08,117.7,161.08L117.7,161.08z M117.7,161.08C117.7,161.08,117.7,161.08,117.7,161.08
									C117.7,161.08,117.7,161.08,117.7,161.08L117.7,161.08z"/>
							</g>
						</g>
					</g>
					<g>
						<path class="st0" d="M135.6,160.66c-1.4-0.51-4.43-1.67-5.6-2.47c-1.35-0.93-2.93-2.13-3.83-3c1.19-0.12,2.09-0.18,2.31-0.19
							C129.09,155.1,135.08,156.26,135.6,160.66z"/>
						<path d="M128.46,155.5c0.73,0.13,5.39,1.12,6.46,4.38c-1.62-0.62-3.75-1.49-4.63-2.1c-1-0.69-2.08-1.5-2.92-2.2
							C127.89,155.53,128.28,155.51,128.46,155.5 M128.51,154.49c0,0-1.46,0.08-3.36,0.3c0.7,1.03,3.33,2.96,4.57,3.81
							c1.61,1.11,6.45,2.8,6.45,2.8c-0.02-0.12-0.03-0.18-0.03-0.18C136.07,155.63,128.51,154.49,128.51,154.49L128.51,154.49z"/>
					</g>
				</g>
				<g>
					<g>
						<g>
							<g>
								<path class="st0" d="M170.75,218.41c-1.96,0-6.74-0.42-8.65-4.28c-11.81-23.87-10.56-59.47-10.55-59.83l0.04-1.12
									l-0.86,0.72c-5.8,4.84-13.33,6.54-14.52,6.79c-6.35-3.2-7.88-5.54-8.18-6.13c7.06-16.33,22.83-21.91,22.99-21.96
									c8.86-3.1,15.24-3.75,19.04-3.75c1.5,0,2.46,0.11,2.82,0.16c1.8,1.92,3.75,2.9,5.79,2.9c5.08,0,8.96-5.99,9.54-6.95
									c7.61-4.25,18.7-5.47,20.02-5.6c13.99,6.4,21.16,22.41,21.83,23.97c-0.68,4.53-5.11,8.32-6.07,9.09
									c-3.31-0.89-12.16-6.27-12.25-6.33l-1.24-0.76l0.51,1.36c0.07,0.19,7.27,19.35,8.69,32.06
									c1.36,12.23-2.61,27.24-11.59,31.19c-2.19,0.96-4.13,1.45-5.77,1.45c-1.76,0-3.13-0.57-3.97-1.64
									c-0.85-1.09-1.11-2.64-0.71-4.25c0.61-2.43,0.5-4.04-0.37-5.21c-0.98-1.33-2.95-2.04-6.19-2.23
									c-0.45-0.03-0.88-0.04-1.3-0.04c-5.57,0-8.96,2.36-10.35,7.22c-0.64,2.25-0.53,4.26-0.42,6.04
									c0.13,2.21,0.23,3.95-1.22,5.22C176.52,217.62,173.62,218.41,170.75,218.41z"/>
								<path d="M208.14,119.87c13.42,6.21,20.47,21.41,21.4,23.53c-0.68,4.03-4.46,7.46-5.66,8.47c-2.84-0.88-9.44-4.72-11.88-6.2
									l-2.48-1.51l1.03,2.72c0.07,0.19,7.25,19.29,8.66,31.94c1.34,12.05-2.52,26.82-11.29,30.68c-2.12,0.93-3.99,1.41-5.57,1.41
									c-1.6,0-2.83-0.5-3.57-1.45c-0.76-0.97-0.98-2.36-0.62-3.82c0.44-1.74,0.78-3.96-0.45-5.63c-1.07-1.46-3.16-2.24-6.57-2.44
									c-0.45-0.03-0.9-0.04-1.32-0.04c-5.83,0-9.37,2.48-10.83,7.59c-0.67,2.33-0.55,4.39-0.44,6.2c0.14,2.36,0.16,3.75-1.05,4.81
									c-1.02,0.89-3.67,1.8-6.74,1.8c-1.87,0-6.41-0.39-8.2-4c-11.75-23.74-10.51-59.23-10.5-59.59l0.09-2.25l-1.73,1.44
									c-5.48,4.57-12.56,6.3-14.13,6.65c-5.58-2.83-7.26-4.93-7.69-5.62c7-15.93,22.44-21.41,22.6-21.47
									c8.79-3.08,15.11-3.72,18.87-3.72c1.28,0,2.15,0.08,2.58,0.13c1.87,1.94,3.89,2.93,6.03,2.93c5.16,0,9.09-5.79,9.9-7.07
									C195.87,121.3,206.36,120.05,208.14,119.87 M208.31,118.84c0,0-12.21,1.08-20.47,5.74c0,0-4.01,6.82-9.18,6.82
									c-1.75,0-3.63-0.78-5.54-2.87c0,0-1.04-0.19-3.06-0.19c-3.53,0-10.06,0.58-19.2,3.78c0,0-16.19,5.56-23.37,22.43
									c0,0,0.75,2.7,8.65,6.65c0,0,8.45-1.54,14.91-6.93c0,0-1.4,35.81,10.6,60.07c1.66,3.36,5.48,4.56,9.1,4.56
									c3.11,0,6.07-0.89,7.4-2.05c2.87-2.51,0.36-6.46,1.79-11.49c1.34-4.67,4.53-6.86,9.87-6.86c0.41,0,0.83,0.01,1.27,0.04
									c6.1,0.36,7.18,2.51,6.1,6.82c-0.79,3.16,0.74,6.52,5.16,6.52c1.6,0,3.58-0.44,5.97-1.49c8.98-3.95,13.32-18.78,11.88-31.7
									c-1.44-12.93-8.72-32.18-8.72-32.18s9.4,5.73,12.63,6.44c0,0,5.74-4.32,6.46-9.7C230.57,143.26,223.39,125.67,208.31,118.84
									L208.31,118.84z"/>
							</g>
						</g>
						<g>
							<path class="st0" d="M210.87,208.27c11.47-14.44,6.76-35.84,4.05-44.72c-2.82-9.26-7.09-12.68-8.7-13.68
								c2.06-2.3,1.48-6.44,0.83-9.03c2.93,2.88,8.58,6.95,12.51,9.66c-3.66-1.88-7.76-4.36-7.82-4.4l-1.24-0.76l0.51,1.36
								c0.07,0.19,7.27,19.35,8.69,32.06C220.9,189.65,217.89,202.74,210.87,208.27z"/>
							<path d="M207.86,142.26c1.23,1.1,2.72,2.29,4.28,3.49c-0.05-0.03-0.1-0.06-0.14-0.09l-2.48-1.51l1.03,2.72
								c0.07,0.19,7.25,19.29,8.66,31.94c0.89,7.98-0.51,17.16-4.1,23.57c6.55-13.98,2.67-31.21,0.3-38.98
								c-2.62-8.6-6.52-12.28-8.46-13.65C208.39,147.71,208.29,144.69,207.86,142.26 M205.87,138.7c0,0,3.18,8.33-0.49,11.27
								c0,0,5.63,2.45,9.06,13.72c3.43,11.27,7.33,33.15-6.14,46.71c8.98-3.95,13.32-18.78,11.88-31.7
								c-1.44-12.93-8.72-32.18-8.72-32.18s9.4,5.73,12.63,6.44C224.11,152.96,208.32,142.62,205.87,138.7L205.87,138.7z"/>
						</g>
						<g>
							<path class="st0" d="M156.74,199.79c-6.03-21.63-5.21-45.2-5.19-45.49l0.04-1.12l-0.86,0.72c-2.45,2.04-5.2,3.52-7.66,4.58
								c3.7-2,8.03-4.81,10.53-7.99C153.33,157.23,152.74,181.25,156.74,199.79z"/>
							<path d="M153.05,151.89c-0.19,5.77-0.38,18.4,0.81,31.46c-2.27-15.63-1.81-28.8-1.8-29.02l0.06-1.49
								C152.43,152.52,152.75,152.21,153.05,151.89 M154.17,148.75c-3.92,6.86-18.04,12.46-18.04,12.46s8.45-1.54,14.91-6.93
								c0,0-1.4,35.81,10.6,60.07c0.56,1.13,1.36,2.01,2.31,2.68C151.45,200.06,154.17,148.75,154.17,148.75L154.17,148.75z"/>
						</g>
						<g>
							<path class="st0" d="M177.88,216.43c0.52-1.8,1.11-5.31,0.31-10.92c-0.67-4.68,0.25-6.88,1.14-7.91
								c0.59-0.68,1.24-0.93,1.64-1.02c-0.12,0.26-0.3,0.6-0.43,0.86c-0.6,1.12-1.17,2.19-0.42,2.68c0.13,0.08,0.28,0.13,0.47,0.13
								c0.51,0,1.39-0.31,2.73-0.79c0.25-0.09,0.51-0.18,0.78-0.27c-2.28,1.15-3.81,3.16-4.63,6.05c-0.64,2.25-0.53,4.26-0.42,6.04
								C179.17,213.45,179.26,215.17,177.88,216.43z M197.89,204.44c0.33-1.86,0.14-3.16-0.59-4.16c-0.98-1.33-2.95-2.04-6.19-2.23
								c-0.45-0.03-0.88-0.04-1.3-0.04c-0.99,0-1.91,0.07-2.76,0.22c1.95-0.56,4.12-1.01,6.22-1.01c0.35,0,0.7,0.01,1.05,0.04
								c0.34,0.03,0.66,0.04,0.95,0.04c2.46,0,3.49-0.88,3.95-1.65c0.75,1.89,0.69,3.43-0.18,5.84c-0.14,0.38-0.3,0.79-0.47,1.21
								C198.33,203.25,198.1,203.84,197.89,204.44z"/>
							<path d="M199.02,196.65c0.4,1.43,0.24,2.73-0.46,4.67c-0.04,0.11-0.08,0.23-0.13,0.34c-0.12-0.59-0.35-1.16-0.73-1.68
								c-0.87-1.19-2.42-1.92-4.79-2.26c0.12,0,0.24,0,0.35,0c0.35,0,0.69,0.01,1.01,0.04c0.34,0.03,0.68,0.04,0.99,0.04
								C196.94,197.81,198.19,197.42,199.02,196.65 M179.72,197.92c-0.48,0.98-0.79,2.02,0.11,2.62c0.21,0.14,0.46,0.21,0.75,0.21
								c0.21,0,0.46-0.04,0.76-0.11c-1.06,1.16-1.84,2.65-2.36,4.47c-0.09,0.3-0.16,0.6-0.22,0.89c-0.02-0.18-0.05-0.36-0.08-0.55
								c-0.64-4.49,0.2-6.56,1.02-7.51C179.71,197.93,179.72,197.92,179.72,197.92 M199.17,194.43c-0.18,0,0.03,2.37-3.91,2.37
								c-0.28,0-0.59-0.01-0.91-0.04c-0.36-0.03-0.73-0.04-1.09-0.04c-5.48,0-11.39,3.02-12.68,3.02c-0.09,0-0.15-0.01-0.2-0.04
								c-0.73-0.49,1.96-3.67,0.98-3.67c-0.98,0-4.9,0.98-3.67,9.55c1.22,8.57-0.82,12.08-0.82,12.08h0
								c0.51-0.24,0.94-0.51,1.27-0.8c2.87-2.51,0.36-6.46,1.79-11.49c1.34-4.67,4.53-6.86,9.87-6.86c0.41,0,0.83,0.01,1.27,0.04
								c6.1,0.36,7.18,2.51,6.1,6.82c-0.54,2.16,0.01,4.42,1.82,5.62c-2.71-2.67-0.48-6.64,0.5-9.33c0.98-2.69,0.98-4.41,0-6.61
								C199.3,194.61,199.22,194.43,199.17,194.43L199.17,194.43z"/>
						</g>
						<g>
							<path class="st0" d="M229.03,146.4c-1.88-16.56-17.05-24.58-22.29-26.88c0.73-0.1,1.25-0.15,1.48-0.17
								c13.99,6.4,21.16,22.41,21.83,23.97C229.9,144.33,229.56,145.36,229.03,146.4z"/>
							<path d="M228.44,141.1c0.57,1.1,0.93,1.91,1.1,2.29c-0.06,0.37-0.15,0.75-0.27,1.13C229.05,143.34,228.77,142.2,228.44,141.1
								 M208.31,118.84c0,0-1.36,0.12-3.47,0.45c0.01,0,22.59,7.89,23.83,28.73c0.91-1.4,1.67-3.03,1.9-4.76
								C230.57,143.26,223.39,125.67,208.31,118.84L208.31,118.84z"/>
						</g>
						<g>
							<path class="st0" d="M128.99,155.84c-0.59-0.62-0.86-1.06-0.96-1.27c5.64-13.06,16.87-19.24,21.21-21.22
								C137.5,140.67,130.52,152.95,128.99,155.84z"/>
							<path d="M142.02,138.16c-7.12,6.43-11.54,13.85-13.14,16.8c-0.14-0.17-0.23-0.31-0.3-0.42
								C131.98,146.81,137.36,141.54,142.02,138.16 M155.87,130.55c-1.57,0.44-3.24,0.96-5.01,1.58c0,0-16.19,5.56-23.37,22.43
								c0,0,0.22,0.78,1.64,2.11C129.13,156.67,138.46,137.35,155.87,130.55L155.87,130.55z"/>
						</g>
						<g>
							<path class="st0" d="M164.08,210.64c-1.16-0.64-3.15-2.62-3.79-8.8c-0.21-2.03-0.52-4.07-0.87-6.44
								c-1.3-8.78-3.09-20.77-2.44-46.8c1.42,0.32,3.87,1.17,4.18,2.67c0.1,0.49-0.02,3.26-0.16,6.77
								C160.46,171.27,159.35,198.39,164.08,210.64z"/>
							<path d="M157.47,149.25c1.35,0.38,3,1.11,3.2,2.13c0.08,0.48-0.04,3.48-0.17,6.66c-0.52,12.62-1.55,37.88,2.48,50.93
								c-0.87-1.19-1.79-3.32-2.19-7.17c-0.21-2.04-0.52-4.09-0.87-6.46C158.63,186.65,156.87,174.8,157.47,149.25 M156.5,148.01
								c-0.88,33.57,2.29,44.34,3.29,53.89c1,9.54,5.15,9.54,5.16,9.54c0,0,0,0,0,0c-6.64-14.93-2.81-57.81-3.31-60.26
								C161.16,148.73,156.5,148.01,156.5,148.01L156.5,148.01z"/>
						</g>
					</g>
					<g>
						<g>
							<g>
								<path class="st0" d="M183.81,160.46c-2.81,0-5.1-2.29-5.1-5.1s2.29-5.1,5.1-5.1c2.81,0,5.1,2.29,5.1,5.1
									S186.62,160.46,183.81,160.46z"/>
								<path d="M183.81,150.76c2.54,0,4.6,2.06,4.6,4.6c0,2.54-2.06,4.6-4.6,4.6c-2.54,0-4.6-2.06-4.6-4.6
									C179.21,152.82,181.28,150.76,183.81,150.76 M183.81,149.76c-3.09,0-5.6,2.51-5.6,5.6c0,3.09,2.51,5.6,5.6,5.6
									c3.09,0,5.6-2.51,5.6-5.6C189.41,152.27,186.9,149.76,183.81,149.76L183.81,149.76z"/>
							</g>
							<g>
								<path class="st0" d="M182.92,158.29c-2.07,0-3.75-1.68-3.75-3.75s1.68-3.75,3.75-3.75c2.07,0,3.75,1.68,3.75,3.75
									S184.99,158.29,182.92,158.29z"/>
								<path d="M182.92,151.3c1.79,0,3.25,1.46,3.25,3.25s-1.46,3.25-3.25,3.25s-3.25-1.46-3.25-3.25S181.13,151.3,182.92,151.3
									 M182.92,150.3c-2.35,0-4.25,1.9-4.25,4.25c0,2.35,1.9,4.25,4.25,4.25c2.35,0,4.25-1.9,4.25-4.25
									C187.17,152.2,185.26,150.3,182.92,150.3L182.92,150.3z"/>
							</g>
							<g>
								<path class="st0" d="M185.51,157.25c0.53-0.77,0.84-1.7,0.84-2.7s-0.31-1.93-0.84-2.7c0.71,0.68,1.15,1.64,1.15,2.7
									C186.67,155.61,186.22,156.57,185.51,157.25z"/>
								<path d="M182.92,150.3c-0.22,0-0.44,0.02-0.66,0.06c2.03,0.32,3.59,2.07,3.59,4.19s-1.56,3.87-3.59,4.19
									c0.22,0.03,0.43,0.06,0.66,0.06c2.35,0,4.25-1.9,4.25-4.25C187.17,152.2,185.26,150.3,182.92,150.3L182.92,150.3z"/>
							</g>
						</g>
						<g>
							<g>
								<path class="st0" d="M185.77,181.53c-2.81,0-5.1-2.29-5.1-5.1s2.29-5.1,5.1-5.1c2.81,0,5.1,2.29,5.1,5.1
									S188.58,181.53,185.77,181.53z"/>
								<path d="M185.77,171.83c2.54,0,4.6,2.06,4.6,4.6c0,2.54-2.06,4.6-4.6,4.6c-2.54,0-4.6-2.06-4.6-4.6
									C181.17,173.89,183.24,171.83,185.77,171.83 M185.77,170.83c-3.09,0-5.6,2.51-5.6,5.6c0,3.09,2.51,5.6,5.6,5.6
									c3.09,0,5.6-2.51,5.6-5.6C191.37,173.34,188.86,170.83,185.77,170.83L185.77,170.83z"/>
							</g>
							<g>
								<path class="st0" d="M184.88,179.36c-2.07,0-3.75-1.68-3.75-3.75c0-2.07,1.68-3.75,3.75-3.75c2.07,0,3.75,1.68,3.75,3.75
									C188.63,177.68,186.95,179.36,184.88,179.36z"/>
								<path d="M184.88,172.37c1.79,0,3.25,1.46,3.25,3.25s-1.46,3.25-3.25,3.25s-3.25-1.46-3.25-3.25S183.09,172.37,184.88,172.37
									 M184.88,171.37c-2.35,0-4.25,1.9-4.25,4.25c0,2.35,1.9,4.25,4.25,4.25c2.35,0,4.25-1.9,4.25-4.25
									C189.13,173.27,187.22,171.37,184.88,171.37L184.88,171.37z"/>
							</g>
							<g>
								<path class="st0" d="M187.47,178.32c0.53-0.77,0.84-1.7,0.84-2.7c0-1-0.31-1.93-0.84-2.7c0.71,0.68,1.15,1.64,1.15,2.7
									C188.63,176.67,188.18,177.63,187.47,178.32z"/>
								<path d="M184.88,171.37c-0.22,0-0.44,0.02-0.66,0.06c2.03,0.32,3.59,2.07,3.59,4.19s-1.56,3.87-3.59,4.19
									c0.22,0.03,0.43,0.06,0.66,0.06c2.35,0,4.25-1.9,4.25-4.25C189.13,173.27,187.22,171.37,184.88,171.37L184.88,171.37z"/>
							</g>
						</g>
					</g>
				</g>
			</g>
			<g>
				<g>
					<path class="st0" d="M175.88,140.65c-5.61,0-9.84-2.11-10.53-5.25c-0.94-4.28,4.65-9.16,12.46-10.88c1.8-0.4,3.6-0.6,5.34-0.6
						c5.61,0,9.84,2.11,10.53,5.25c0.94,4.28-4.65,9.16-12.46,10.88C179.42,140.45,177.62,140.65,175.88,140.65z"/>
					<path d="M183.15,123.43v1c5.37,0,9.4,1.95,10.04,4.85c0.87,3.94-4.66,8.65-12.08,10.28c-1.77,0.39-3.53,0.59-5.24,0.59
						c-5.37,0-9.4-1.95-10.04-4.85c-0.87-3.94,4.66-8.65,12.08-10.28c1.77-0.39,3.53-0.59,5.24-0.59L183.15,123.43 M183.15,123.43
						c-1.73,0-3.57,0.2-5.45,0.61c-8.09,1.78-13.84,6.92-12.84,11.47c0.77,3.5,5.29,5.64,11.02,5.64c1.73,0,3.57-0.2,5.45-0.61
						c8.09-1.78,13.84-6.92,12.84-11.47C193.4,125.57,188.87,123.43,183.15,123.43L183.15,123.43z"/>
				</g>
				<g>
					<g>
						<g>
							<path class="st0" d="M169.74,137.69c-13.04,0-23.03-5.59-28.9-16.16l-0.23-0.41l-0.42,0.2c-0.38,0.18-0.77,0.3-1.15,0.36
								c-0.24,0.04-0.49,0.06-0.73,0.06c-2.49,0-4.71-2.11-5.18-4.92c-0.45-2.72,0.85-5.35,3.1-6.25l0.4-0.16l-0.1-0.42
								c-0.26-1.15-0.49-2.28-0.67-3.37c-3.35-20.08,10.45-39.18,30.77-42.58c2.07-0.35,4.18-0.52,6.27-0.52
								c18.27,0,33.69,12.95,36.67,30.79c0.19,1.14,0.35,2.28,0.48,3.41l0.05,0.42l0.42,0.02c2.41,0.13,4.49,2.19,4.94,4.91
								c0.52,3.13-1.28,6.05-4.02,6.51c-0.24,0.04-0.47,0.06-0.71,0.06l-0.66-0.02l-0.07,0.45c-2.14,14.7-12.64,23.72-31.21,26.82
								C175.65,137.42,172.6,137.69,169.74,137.69z"/>
							<path d="M172.9,64.02c18.02,0,33.24,12.77,36.17,30.38c0.19,1.12,0.35,2.26,0.48,3.39l0.1,0.84l0.84,0.05
								c2.18,0.12,4.06,2.01,4.48,4.49c0.24,1.41-0.02,2.81-0.73,3.94c-0.68,1.09-1.7,1.8-2.88,2c-0.2,0.03-0.41,0.05-0.62,0.05
								c-0.06,0-0.13,0-0.19,0l-0.9-0.04l-0.13,0.89c-2.1,14.46-12.46,23.34-30.8,26.4c-3.12,0.52-6.14,0.79-8.97,0.79
								c-12.85,0-22.69-5.5-28.46-15.91l-0.45-0.82l-0.85,0.4c-0.34,0.16-0.68,0.27-1.02,0.32c-0.21,0.04-0.43,0.05-0.65,0.05
								c-2.25,0-4.26-1.93-4.69-4.5c-0.42-2.49,0.76-4.89,2.79-5.71l0.8-0.32l-0.19-0.83c-0.26-1.13-0.49-2.26-0.67-3.34
								c-3.31-19.81,10.31-38.65,30.36-42C168.76,64.2,170.84,64.02,172.9,64.02 M172.9,63.02c-2.09,0-4.22,0.17-6.35,0.53
								c-20.63,3.44-34.59,22.76-31.18,43.15c0.19,1.15,0.42,2.29,0.68,3.4c-2.42,0.97-3.91,3.79-3.4,6.8
								c0.52,3.1,2.97,5.33,5.68,5.33c0.27,0,0.54-0.02,0.81-0.07c0.45-0.08,0.88-0.22,1.28-0.41c5.51,9.93,15.03,16.42,29.34,16.42
								c2.85,0,5.89-0.26,9.13-0.8c20.9-3.49,29.7-13.95,31.63-27.25c0.08,0,0.16,0.01,0.24,0.01c0.26,0,0.52-0.02,0.79-0.06
								c3.01-0.5,5-3.68,4.43-7.09c-0.5-3-2.81-5.18-5.41-5.32c-0.13-1.14-0.29-2.28-0.48-3.44
								C207.01,75.96,191.04,63.02,172.9,63.02L172.9,63.02z"/>
						</g>
						<g>
							<g>
								<path class="st0" d="M188.35,106.09c-1.27,0-2.34-1.75-2.34-3.83c0-2.08,1.07-3.83,2.34-3.83s2.34,1.75,2.34,3.83
									C190.69,104.34,189.62,106.09,188.35,106.09z"/>
								<path d="M188.35,98.94c0.87,0,1.84,1.37,1.84,3.33c0,1.96-0.97,3.33-1.84,3.33s-1.84-1.37-1.84-3.33
									C186.51,100.3,187.48,98.94,188.35,98.94 M188.35,97.94c-1.57,0-2.84,1.94-2.84,4.33c0,2.39,1.27,4.33,2.84,4.33
									c1.57,0,2.84-1.94,2.84-4.33C191.19,99.87,189.92,97.94,188.35,97.94L188.35,97.94z"/>
							</g>
							<g>
								<g>
									<path class="st0" d="M193.22,95.45c-0.14,0-0.28-0.06-0.37-0.17c-1.53-1.79-5.73-3.64-5.78-3.66
										c-0.25-0.11-0.36-0.4-0.25-0.65c0.11-0.25,0.4-0.36,0.65-0.25c0.18,0.08,4.45,1.96,6.13,3.92
										c0.18,0.21,0.15,0.51-0.05,0.69C193.45,95.41,193.33,95.45,193.22,95.45z"/>
									<path d="M187.27,90.68c-0.19,0-0.37,0.11-0.45,0.29c-0.11,0.25,0,0.54,0.25,0.65c0.04,0.02,4.24,1.87,5.78,3.66
										c0.1,0.11,0.23,0.17,0.37,0.17c0.11,0,0.23-0.04,0.32-0.12c0.21-0.18,0.23-0.49,0.05-0.69c-1.68-1.96-5.95-3.84-6.13-3.92
										C187.4,90.7,187.33,90.68,187.27,90.68L187.27,90.68z"/>
								</g>
							</g>
						</g>
						<g>
							<g>
								<path class="st0" d="M159.38,110.65c-1.22,0-2.37-1.61-2.57-3.59c-0.2-2.06,0.69-3.91,1.95-4.04c0.05,0,0.09-0.01,0.14-0.01
									c1.22,0,2.37,1.61,2.57,3.59c0.1,1.05-0.06,2.07-0.47,2.85c-0.37,0.71-0.9,1.14-1.48,1.19
									C159.47,110.65,159.42,110.65,159.38,110.65z"/>
								<path d="M158.9,103.52c0.85,0,1.88,1.26,2.07,3.14c0.09,0.94-0.06,1.88-0.42,2.57c-0.17,0.32-0.54,0.87-1.09,0.93
									c-0.03,0-0.06,0-0.09,0c-0.85,0-1.89-1.26-2.07-3.14c-0.19-1.95,0.64-3.41,1.51-3.49
									C158.84,103.52,158.87,103.52,158.9,103.52 M158.9,102.52c-0.06,0-0.12,0-0.19,0.01c-1.56,0.15-2.64,2.21-2.4,4.59
									c0.23,2.28,1.58,4.04,3.07,4.04c0.06,0,0.12,0,0.19-0.01c1.56-0.15,2.64-2.21,2.4-4.59
									C161.74,104.27,160.39,102.52,158.9,102.52L158.9,102.52z"/>
							</g>
							<g>
								<g>
									<path class="st0" d="M151.91,100.7c-0.1,0-0.19-0.03-0.28-0.09c-0.22-0.16-0.28-0.46-0.12-0.68
										c1.48-2.11,5.54-4.4,5.71-4.5c0.24-0.13,0.53-0.05,0.67,0.19c0.13,0.24,0.05,0.53-0.19,0.67
										c-0.04,0.02-4.04,2.28-5.39,4.21C152.22,100.62,152.06,100.7,151.91,100.7z"/>
									<path d="M157.46,95.37c-0.08,0-0.16,0.02-0.24,0.06c-0.17,0.1-4.24,2.39-5.71,4.5c-0.16,0.22-0.1,0.53,0.12,0.68
										c0.09,0.06,0.18,0.09,0.28,0.09c0.15,0,0.31-0.07,0.4-0.21c1.35-1.93,5.35-4.18,5.39-4.21c0.24-0.13,0.32-0.43,0.19-0.67
										C157.8,95.46,157.63,95.37,157.46,95.37L157.46,95.37z"/>
								</g>
							</g>
						</g>
						<g>
							<g>
								<path class="st0" d="M172.81,126.48c-6.14,0-9.7-3.94-9.85-4.1c-0.06-0.06-0.06-0.13-0.06-0.17c0-0.04,0.02-0.11,0.08-0.16
									c0.06-0.05,0.12-0.06,0.16-0.06c0.04,0,0.11,0.01,0.18,0.08c0.14,0.16,3.6,3.94,9.5,3.94c1.12,0,2.26-0.14,3.41-0.4
									c7.95-1.86,9.96-8.45,10.04-8.73c0.03-0.1,0.12-0.17,0.23-0.17c0.19,0.05,0.26,0.18,0.23,0.3
									c-0.08,0.29-2.12,7.13-10.38,9.06C175.15,126.34,173.97,126.48,172.81,126.48z"/>
								<path d="M186.49,116.2c-0.32,0-0.61,0.21-0.71,0.53c-0.08,0.27-1.99,6.59-9.67,8.39c-1.17,0.27-2.27,0.39-3.29,0.39
									c-5.67,0-8.97-3.6-9.13-3.78c-0.15-0.16-0.35-0.25-0.55-0.25c-0.17,0-0.35,0.06-0.49,0.18c-0.3,0.27-0.33,0.73-0.06,1.04
									c0.18,0.2,3.87,4.27,10.22,4.27c1.13,0,2.34-0.13,3.64-0.43c8.55-2,10.66-9.11,10.75-9.41c0.11-0.39-0.12-0.8-0.5-0.91
									C186.63,116.2,186.56,116.2,186.49,116.2L186.49,116.2z"/>
							</g>
						</g>
						<g>
							<g>
								<path class="st0" d="M168.83,88.23c-0.3,0-0.6-0.01-0.91-0.03c-4.51-0.28-8.04-2.56-9.95-6.44
									c-1.75-3.55-2.02-6.87-0.83-9.89c2.24-5.65,8.78-8.15,9.06-8.26c0.06-0.02,0.11-0.03,0.17-0.03c0.2,0,0.38,0.13,0.45,0.31
									c0.05,0.12,0.04,0.25-0.01,0.37c-0.05,0.12-0.15,0.21-0.27,0.25c-0.06,0.02-6.44,2.48-8.51,7.72
									c-1.09,2.75-0.82,5.81,0.8,9.1c2.36,4.79,6.74,5.76,9.14,5.9c0.27,0.02,0.55,0.02,0.82,0.02c4.32,0,8.7-2.06,10.63-5.02
									c1.33-2.03,1.43-4.28,0.3-6.5c-1.76-3.45-3.88-5.28-6.15-5.28c-0.21,0-0.42,0.02-0.63,0.05c-2.67,0.39-4.92,3.16-5.34,5.49
									c-0.31,1.7,0.26,3.18,1.41,3.68c0.28,0.12,0.58,0.18,0.91,0.18c0.75,0,2.27-0.35,4.01-2.68c0.09-0.12,0.23-0.19,0.38-0.19
									c0.1,0,0.2,0.03,0.29,0.1c0.1,0.08,0.17,0.19,0.19,0.32c0.02,0.13-0.01,0.25-0.09,0.36c-1.47,1.97-3.18,3.06-4.8,3.06
									c-0.46,0-0.88-0.09-1.27-0.25c-1.57-0.68-2.36-2.58-1.97-4.73c0.48-2.66,3.07-5.82,6.15-6.27c0.25-0.04,0.51-0.06,0.79-0.06
									c2.63,0,5.05,2.01,6.98,5.81c1.28,2.52,1.16,5.17-0.35,7.47C178.11,86.04,173.52,88.23,168.83,88.23L168.83,88.23z"/>
								<path d="M166.38,63.09c-0.11,0-0.23,0.02-0.34,0.06c-0.29,0.11-7.03,2.69-9.35,8.54c-1.25,3.15-0.97,6.62,0.84,10.3
									c1.99,4.04,5.67,6.43,10.36,6.72c0.31,0.02,0.62,0.03,0.94,0.03c4.82,0,9.59-2.26,11.83-5.68c1.61-2.46,1.75-5.29,0.38-7.97
									c-2.49-4.88-5.28-6.08-7.43-6.08c-0.3,0-0.59,0.02-0.86,0.06c-3.29,0.48-6.05,3.84-6.57,6.67c-0.43,2.38,0.48,4.5,2.26,5.28
									c0.43,0.19,0.93,0.3,1.47,0.3c1.52,0,3.41-0.85,5.21-3.26c0.32-0.43,0.23-1.05-0.2-1.37c-0.18-0.13-0.38-0.19-0.59-0.19
									c-0.3,0-0.59,0.14-0.79,0.39c-1.37,1.83-2.66,2.48-3.61,2.48c-0.27,0-0.5-0.05-0.71-0.14c-0.93-0.41-1.38-1.67-1.12-3.13
									c0.39-2.12,2.5-4.73,4.92-5.09c0.19-0.03,0.37-0.04,0.56-0.04c2.07,0,4.03,1.72,5.7,5.01c1.05,2.06,0.95,4.13-0.27,6
									c-1.87,2.85-6.08,4.79-10.22,4.79c-0.27,0-0.53-0.01-0.79-0.02c-2.29-0.14-6.48-1.06-8.73-5.63
									c-1.55-3.16-1.82-6.08-0.78-8.7c1.99-5.04,8.15-7.41,8.22-7.44c0.51-0.19,0.76-0.76,0.57-1.26
									C167.15,63.33,166.78,63.09,166.38,63.09L166.38,63.09z"/>
							</g>
						</g>
						<g>
							<g>
								<path class="st0" d="M154.29,82.23c-0.19,0-0.37-0.12-0.44-0.3c-3.16-7.54,1.11-14.31,1.29-14.59
									c0.09-0.14,0.24-0.22,0.4-0.22c0.09,0,0.18,0.03,0.26,0.08c0.22,0.14,0.29,0.44,0.14,0.66c-0.04,0.07-4.15,6.69-1.21,13.7
									c0.1,0.24-0.01,0.53-0.26,0.63C154.42,82.22,154.35,82.23,154.29,82.23z"/>
								<path d="M155.54,66.62c-0.32,0-0.64,0.16-0.83,0.45c-0.19,0.29-4.58,7.28-1.33,15.06c0.16,0.38,0.52,0.6,0.9,0.6
									c0.13,0,0.25-0.02,0.38-0.08c0.5-0.21,0.73-0.78,0.53-1.28c-2.84-6.79,1.11-13.15,1.17-13.24c0.29-0.46,0.16-1.06-0.29-1.35
									C155.91,66.67,155.72,66.62,155.54,66.62L155.54,66.62z"/>
							</g>
						</g>
						<g>
							<g>
								<path class="st0" d="M148.89,78.75c-0.2,0-0.38-0.13-0.45-0.32c-1.83-5.07,1.33-8.51,1.46-8.65
									c0.09-0.1,0.22-0.15,0.35-0.15c0.12,0,0.24,0.05,0.33,0.13c0.19,0.18,0.2,0.48,0.02,0.68c-0.12,0.13-2.87,3.18-1.26,7.67
									c0.09,0.25-0.04,0.52-0.29,0.61C149,78.74,148.95,78.75,148.89,78.75z"/>
								<path d="M150.25,69.12c-0.26,0-0.52,0.1-0.71,0.31c-0.14,0.15-3.5,3.8-1.57,9.16c0.14,0.4,0.52,0.65,0.92,0.65
									c0.11,0,0.22-0.02,0.33-0.06c0.51-0.18,0.77-0.74,0.59-1.25c-1.51-4.2,1.04-7.03,1.15-7.16c0.37-0.39,0.35-1.01-0.04-1.38
									C150.73,69.21,150.49,69.12,150.25,69.12L150.25,69.12z"/>
							</g>
						</g>
						<g>
							<g>
								<path class="st0" d="M161.96,67.08c-0.08,0-0.16-0.02-0.23-0.06c-2.83-1.55-7.67-5.83-5.71-10.9
									c0.07-0.18,0.25-0.31,0.45-0.31c0.06,0,0.12,0.01,0.17,0.03c0.25,0.1,0.37,0.37,0.27,0.62c-0.89,2.3-0.3,4.62,1.75,6.88
									c1.58,1.75,3.51,2.82,3.53,2.83c0.11,0.06,0.19,0.16,0.23,0.29s0.02,0.25-0.04,0.36C162.29,66.99,162.13,67.08,161.96,67.08
									z"/>
								<path d="M156.47,55.31c-0.39,0-0.76,0.24-0.91,0.63c-2.09,5.4,2.97,9.9,5.93,11.52c0.15,0.08,0.31,0.12,0.47,0.12
									c0.35,0,0.68-0.18,0.86-0.51c0.26-0.47,0.09-1.07-0.39-1.33c-0.02-0.01-1.87-1.04-3.4-2.73c-1.91-2.11-2.47-4.25-1.65-6.37
									c0.2-0.5-0.06-1.07-0.56-1.27C156.71,55.34,156.59,55.31,156.47,55.31L156.47,55.31z"/>
							</g>
						</g>
					</g>
					<g>
						<path class="st0" d="M169.75,137.69c-3.85,0-7.44-0.48-10.74-1.43c3.17,0.36,6.23,0.54,9.14,0.54
							c15.28,0,34.3-5.01,38.13-28.88c3.23-20.11-8.8-33.93-14.93-39.52c9.68,5.46,16.37,14.89,18.21,25.92
							c0.19,1.14,0.35,2.28,0.48,3.41l0.05,0.42l0.42,0.02c2.41,0.13,4.49,2.19,4.94,4.91c0.52,3.13-1.28,6.05-4.02,6.51
							c-0.24,0.04-0.47,0.06-0.71,0.06l-0.66-0.02l-0.07,0.45c-2.14,14.7-12.64,23.72-31.21,26.82
							C175.65,137.42,172.61,137.69,169.75,137.69z"/>
						<path d="M195.09,71.43c7.39,5.54,12.43,13.67,13.98,22.97c0.19,1.12,0.35,2.26,0.48,3.39l0.1,0.84l0.84,0.05
							c2.18,0.12,4.06,2.01,4.48,4.49c0.24,1.41-0.02,2.81-0.73,3.94c-0.68,1.09-1.7,1.8-2.88,2c-0.2,0.03-0.41,0.05-0.62,0.05
							c-0.06,0-0.13,0-0.19,0l-0.9-0.04l-0.13,0.89c-2.07,14.24-12.15,23.07-29.98,26.26c15.39-3.02,24.73-12.64,27.24-28.27
							C209.51,90.95,201.43,78.39,195.09,71.43 M187.72,66.05c1.02,0.71,22.21,15.96,18.07,41.78
							c-3.42,21.31-19.28,28.46-37.63,28.46c-4.44,0-9.02-0.42-13.61-1.15c4.31,1.96,9.36,3.05,15.21,3.05
							c2.85,0,5.89-0.26,9.12-0.8c20.9-3.49,29.7-13.95,31.63-27.25c0.08,0,0.16,0.01,0.24,0.01c0.26,0,0.52-0.02,0.79-0.06
							c3.01-0.5,5-3.68,4.43-7.09c-0.5-3-2.81-5.18-5.41-5.32c-0.13-1.14-0.29-2.28-0.48-3.44
							C207.89,81.2,199.14,70.89,187.72,66.05L187.72,66.05z"/>
					</g>
					<g>
						<path d="M187.7,111.28c-1,0-1.5-0.13-1.71-0.22c0.37-0.39,2.01-1.19,4.95-1.74c1.27-0.24,2.53-0.37,3.54-0.37
							c1,0,1.5,0.13,1.71,0.22c-0.37,0.39-2.02,1.19-4.95,1.74C189.96,111.15,188.71,111.28,187.7,111.28z"/>
						<path class="st0" d="M194.48,109.46L194.48,109.46c0.05,0,0.1,0,0.15,0c-0.8,0.32-1.97,0.68-3.49,0.96
							c-1.24,0.23-2.46,0.36-3.44,0.36c-0.05,0-0.1,0-0.15,0c0.8-0.32,1.97-0.68,3.49-0.96
							C192.27,109.59,193.5,109.46,194.48,109.46 M194.48,108.46c-1.01,0-2.27,0.12-3.63,0.37c-3.12,0.58-5.55,1.62-5.41,2.33
							c0.07,0.4,0.95,0.61,2.26,0.61c1.01,0,2.27-0.12,3.63-0.37c3.12-0.58,5.55-1.62,5.41-2.33
							C196.67,108.67,195.79,108.46,194.48,108.46L194.48,108.46z"/>
					</g>
					<g>
						<path d="M153.07,117.16c-1,0-1.5-0.13-1.71-0.22c0.37-0.39,2.01-1.19,4.95-1.74c1.27-0.24,2.53-0.37,3.54-0.37
							c1,0,1.5,0.13,1.71,0.22c-0.37,0.39-2.01,1.19-4.95,1.74C155.34,117.03,154.08,117.16,153.07,117.16z"/>
						<path class="st0" d="M159.85,115.34L159.85,115.34c0.05,0,0.1,0,0.15,0c-0.8,0.32-1.97,0.68-3.49,0.96
							c-1.24,0.23-2.46,0.36-3.44,0.36c-0.05,0-0.1,0-0.15,0c0.8-0.32,1.97-0.68,3.49-0.96
							C157.65,115.47,158.87,115.34,159.85,115.34 M159.85,114.34c-1.01,0-2.27,0.12-3.63,0.37c-3.12,0.58-5.55,1.62-5.41,2.33
							c0.07,0.4,0.95,0.61,2.26,0.61c1.01,0,2.27-0.12,3.63-0.37c3.12-0.58,5.55-1.62,5.41-2.33
							C162.04,114.55,161.16,114.34,159.85,114.34L159.85,114.34z"/>
					</g>
				</g>
			</g>
		</g>
	</g>
	<g>
		<path d="M68.36,273.97h13.4c-0.52-3.6-1.53-6.67-3.01-9.21c-1.48-2.54-3.59-4.73-6.33-6.57l1.3-3.05
			c3.09,1.64,5.61,4.04,7.56,7.21c1.95,3.17,3.25,7.04,3.9,11.62h4.48c0.13,0,0.2,0.05,0.2,0.16v2.79c0,0.13-0.07,0.2-0.2,0.2H68.36
			V273.97z"/>
		<path d="M89.25,277.11c-0.13,0-0.2-0.07-0.2-0.2v-2.79c0-0.1,0.07-0.16,0.2-0.16h6.53V257.6h3.58v16.37h6.03
			c0.13,0,0.2,0.05,0.2,0.16v2.79c0,0.13-0.07,0.2-0.2,0.2H89.25z M94.21,285.17c-0.63,0-1.16-0.19-1.6-0.57s-0.66-1-0.66-1.85
			s0.22-1.47,0.66-1.85s0.97-0.57,1.6-0.57c0.68,0,1.23,0.21,1.63,0.62c0.41,0.41,0.61,1.01,0.61,1.8c0,0.77-0.2,1.37-0.6,1.79
			C95.45,284.96,94.9,285.17,94.21,285.17z M101.16,285.17c-0.69,0-1.24-0.21-1.65-0.63c-0.41-0.42-0.61-1.02-0.61-1.79
			s0.2-1.37,0.6-1.79c0.4-0.42,0.95-0.63,1.66-0.63c0.72,0,1.28,0.22,1.67,0.66c0.39,0.44,0.59,1.03,0.59,1.76s-0.2,1.32-0.59,1.76
			C102.44,284.95,101.88,285.17,101.16,285.17z"/>
		<path d="M105,277.11c-0.13,0-0.2-0.07-0.2-0.2v-2.79c0-0.1,0.07-0.16,0.2-0.16h5.31v-27.44h3.58v30.58H105z"/>
		<path d="M121.94,246.53h3.58v30.58h-3.58V246.53z"/>
		<path d="M148.71,278.08c0,2.74-0.81,4.87-2.43,6.41c-1.62,1.53-3.91,2.3-6.87,2.3c-2.74,0-5.16-0.69-7.25-2.06l1.61-2.69
			c0.86,0.46,1.76,0.84,2.67,1.15c0.92,0.31,1.93,0.46,3.05,0.46c1.82,0,3.25-0.49,4.28-1.46c1.03-0.98,1.55-2.28,1.55-3.9v-1.16
			h-3.95c-2.86,0-5.07-0.79-6.63-2.36c-1.57-1.57-2.35-3.85-2.35-6.82c0-3.16,1-5.67,3.01-7.54s4.68-2.8,8.04-2.8h5.27v16.37h3.3
			c0.13,0,0.2,0.05,0.2,0.16v2.79c0,0.13-0.07,0.2-0.2,0.2h-3.3V278.08z M145.29,273.97v-13.25h-1.73c-2.39,0-4.24,0.63-5.57,1.89
			s-1.99,3.02-1.99,5.29c0,2.1,0.46,3.63,1.37,4.61c0.91,0.98,2.29,1.46,4.14,1.46H145.29z"/>
		<path d="M151.62,277.11c-0.13,0-0.2-0.07-0.2-0.2v-2.79c0-0.1,0.07-0.16,0.2-0.16h4.99c-1-2.59-1.49-4.89-1.49-6.88
			c0-2.4,0.48-4.53,1.45-6.41c0.98-0.83,2.11-1.48,3.38-1.97c1.27-0.48,2.59-0.73,3.97-0.73c1.68,0,3.15,0.37,4.42,1.11
			c1.27,0.74,2.25,1.79,2.93,3.16c0.68,1.36,1.02,2.91,1.02,4.64c0,2.11-0.38,3.93-1.15,5.46c-0.77,1.53-1.85,2.71-3.24,3.53
			c-1.4,0.82-2.99,1.23-4.79,1.23H151.62z M158.73,266.4c0,1.25,0.11,2.47,0.33,3.67c0.22,1.2,0.62,2.5,1.2,3.9h2.85
			c1.79,0,3.17-0.61,4.13-1.83c0.96-1.22,1.43-2.98,1.43-5.29c0-1.69-0.46-3.07-1.39-4.15c-0.92-1.07-2.05-1.61-3.37-1.61
			c-0.85,0-1.69,0.15-2.51,0.45c-0.82,0.3-1.55,0.7-2.19,1.2c-0.22,0.56-0.36,1.14-0.41,1.72
			C158.76,265.05,158.73,265.69,158.73,266.4z"/>
		<path d="M191.22,274.54c0.55-0.06,0.98-0.14,1.3-0.24l2.28-0.41c-0.75-0.5-1.36-1.24-1.85-2.24c-0.49-1-0.73-2.08-0.73-3.26
			c0-1.63,0.34-3.01,1.03-4.17c0.69-1.15,1.66-2.04,2.93-2.65c1.26-0.62,2.72-0.92,4.37-0.92c1.93,0,3.55,0.39,4.88,1.18l-0.88,3.01
			c-1.32-0.69-2.63-1.04-3.91-1.04c-1.56,0-2.75,0.41-3.56,1.24c-0.81,0.83-1.22,2.02-1.22,3.6c0,1.01,0.23,1.93,0.7,2.75
			c0.46,0.83,1.08,1.42,1.84,1.79l0.88-0.1c4.06-0.52,6.54-0.79,7.45-0.79v3.26c-1.31,0-3.89,0.25-7.74,0.75
			c-3.85,0.5-6.44,0.89-7.76,1.18V274.54z"/>
		<path d="M212.37,246.53h3.58v30.58h-3.58V246.53z"/>
		<path d="M221.78,273.97h13.4c-0.52-3.6-1.53-6.67-3.01-9.21c-1.48-2.54-3.59-4.73-6.33-6.57l1.3-3.05
			c3.09,1.64,5.61,4.04,7.56,7.21c1.95,3.17,3.25,7.04,3.9,11.62h4.48c0.13,0,0.2,0.05,0.2,0.16v2.79c0,0.13-0.07,0.2-0.2,0.2
			h-21.31V273.97z"/>
		<path d="M242.68,277.11c-0.13,0-0.2-0.07-0.2-0.2v-2.79c0-0.1,0.07-0.16,0.2-0.16h6.23c-0.85-0.54-1.53-1.32-2.04-2.34
			c-0.51-1.02-0.77-2.16-0.77-3.42c0-1.64,0.36-3.08,1.08-4.31s1.7-2.19,2.94-2.87s2.59-1.01,4.06-1.01c5.21,0,7.82,2.88,7.82,8.65
			v5.31h5.27v-7.88c0-3.66-0.83-6.35-2.48-8.08c-1.65-1.73-4.25-2.59-7.78-2.59c-2.61,0-5.09,0.39-7.45,1.18l-0.92-3.11
			c2.52-0.84,5.31-1.26,8.37-1.26c4.38,0,7.75,1.18,10.12,3.55c2.37,2.37,3.56,5.69,3.56,9.97v11.36H242.68z M258.58,273.97v-4.7
			c0-1.98-0.38-3.43-1.15-4.34s-1.9-1.38-3.41-1.38c-1.36,0-2.43,0.42-3.19,1.25s-1.15,2.01-1.15,3.55c0,1.72,0.52,3.08,1.55,4.1
			s2.38,1.52,4.05,1.52H258.58z"/>
		<path d="M278.13,246.53h3.58v30.58h-3.58V246.53z"/>
	</g>
</g>
</svg>
