<?xml version="1.0" encoding="utf-8"?>
<!-- Generator: Adobe Illustrator 23.0.3, SVG Export Plug-In . SVG Version: 6.00 Build 0)  -->
<svg version="1.1" id="Layer_1" xmlns="http://www.w3.org/2000/svg" xmlns:xlink="http://www.w3.org/1999/xlink" x="0px" y="0px"
	 viewBox="0 0 352.29 330.83" style="enable-background:new 0 0 352.29 330.83;" xml:space="preserve">
<style type="text/css">
	.st0{fill:#FFFFFF;}
</style>
<g>
	<g>
		<path class="st0" d="M84.52,316.77c-32.94,0-59.73-26.8-59.73-59.73V73.79c0-32.94,26.8-59.73,59.73-59.73h183.25
			c32.94,0,59.73,26.8,59.73,59.73v183.25c0,32.94-26.8,59.73-59.73,59.73H84.52z"/>
		<path d="M267.77,14.56c32.66,0,59.23,26.57,59.23,59.23v183.25c0,32.66-26.57,59.23-59.23,59.23H84.52
			c-32.66,0-59.23-26.57-59.23-59.23V73.79c0-32.66,26.57-59.23,59.23-59.23H267.77 M267.77,13.56H84.52
			c-33.27,0-60.23,26.97-60.23,60.23v183.25c0,33.27,26.97,60.23,60.23,60.23h183.25c33.27,0,60.23-26.97,60.23-60.23V73.79
			C328,40.52,301.04,13.56,267.77,13.56L267.77,13.56z"/>
	</g>
	<g>
		<path d="M92.86,272.05h13.4c-0.52-3.6-1.53-6.67-3.01-9.21c-1.48-2.54-3.59-4.73-6.33-6.57l1.3-3.05
			c3.09,1.64,5.61,4.04,7.56,7.21c1.95,3.17,3.25,7.04,3.9,11.62h4.48c0.13,0,0.2,0.05,0.2,0.16V275c0,0.13-0.07,0.2-0.2,0.2H92.86
			V272.05z"/>
		<path d="M113.75,275.19c-0.13,0-0.2-0.07-0.2-0.2v-2.79c0-0.1,0.07-0.16,0.2-0.16h6.53v-16.37h3.58v16.37h6.03
			c0.13,0,0.2,0.05,0.2,0.16V275c0,0.13-0.07,0.2-0.2,0.2H113.75z M118.71,283.25c-0.63,0-1.16-0.19-1.6-0.57s-0.66-1-0.66-1.85
			s0.22-1.47,0.66-1.85s0.97-0.57,1.6-0.57c0.68,0,1.23,0.21,1.63,0.62c0.41,0.41,0.61,1.01,0.61,1.8c0,0.77-0.2,1.37-0.6,1.79
			C119.95,283.04,119.4,283.25,118.71,283.25z M125.66,283.25c-0.69,0-1.24-0.21-1.65-0.63c-0.41-0.42-0.61-1.02-0.61-1.79
			s0.2-1.37,0.6-1.79c0.4-0.42,0.95-0.63,1.66-0.63c0.72,0,1.28,0.22,1.67,0.66c0.39,0.44,0.59,1.03,0.59,1.76s-0.2,1.32-0.59,1.76
			C126.94,283.03,126.38,283.25,125.66,283.25z"/>
		<path d="M129.5,275.19c-0.13,0-0.2-0.07-0.2-0.2v-2.79c0-0.1,0.07-0.16,0.2-0.16h6.19c-0.85-0.72-1.54-1.71-2.06-2.97
			s-0.79-2.65-0.79-4.19c0-3.03,0.87-5.39,2.6-7.09c1.74-1.7,4.06-2.54,6.97-2.54c1.15,0,2.22,0.12,3.19,0.34
			c0.98,0.23,1.78,0.51,2.41,0.84l-1.08,3.01c-1.66-0.69-3.24-1.04-4.72-1.04c-3.81,0-5.72,2.21-5.72,6.64
			c0,2.08,0.46,3.77,1.37,5.06c0.91,1.29,2.11,1.94,3.59,1.94h7.17v3.14H129.5z"/>
		<path d="M166.72,272.62c0.55-0.06,0.98-0.14,1.3-0.24l2.28-0.41c-0.75-0.5-1.36-1.24-1.85-2.24c-0.48-1-0.73-2.08-0.73-3.26
			c0-1.63,0.34-3.01,1.03-4.17c0.69-1.15,1.66-2.04,2.93-2.65c1.26-0.62,2.72-0.92,4.37-0.92c1.93,0,3.55,0.39,4.87,1.18l-0.88,3.01
			c-1.32-0.69-2.63-1.04-3.91-1.04c-1.56,0-2.75,0.41-3.56,1.24c-0.81,0.83-1.22,2.02-1.22,3.6c0,1.01,0.23,1.93,0.7,2.75
			c0.46,0.83,1.08,1.42,1.84,1.79l0.88-0.1c4.06-0.52,6.54-0.79,7.45-0.79v3.26c-1.31,0-3.89,0.25-7.74,0.75s-6.44,0.89-7.76,1.18
			V272.62z"/>
		<path d="M187.87,244.61h3.58v30.58h-3.58V244.61z"/>
		<path d="M197.28,272.05h13.4c-0.52-3.6-1.53-6.67-3.01-9.21c-1.48-2.54-3.59-4.73-6.33-6.57l1.3-3.05
			c3.09,1.64,5.61,4.04,7.56,7.21c1.95,3.17,3.25,7.04,3.9,11.62h4.48c0.13,0,0.2,0.05,0.2,0.16V275c0,0.13-0.07,0.2-0.2,0.2h-21.31
			V272.05z"/>
		<path d="M218.18,275.19c-0.13,0-0.2-0.07-0.2-0.2v-2.79c0-0.1,0.07-0.16,0.2-0.16h6.23c-0.85-0.54-1.53-1.32-2.04-2.34
			c-0.51-1.02-0.77-2.16-0.77-3.42c0-1.64,0.36-3.08,1.08-4.31s1.7-2.19,2.94-2.87s2.59-1.01,4.06-1.01c5.21,0,7.82,2.88,7.82,8.65
			v5.31h5.27v-7.88c0-3.66-0.83-6.35-2.48-8.08c-1.65-1.73-4.25-2.59-7.78-2.59c-2.61,0-5.09,0.39-7.45,1.18l-0.92-3.11
			c2.52-0.84,5.31-1.26,8.37-1.26c4.38,0,7.75,1.18,10.12,3.55c2.37,2.37,3.56,5.69,3.56,9.97v11.36H218.18z M234.08,272.05v-4.7
			c0-1.98-0.38-3.43-1.15-4.34s-1.9-1.38-3.41-1.38c-1.36,0-2.43,0.42-3.19,1.25s-1.15,2.01-1.15,3.55c0,1.72,0.52,3.08,1.55,4.1
			s2.38,1.52,4.05,1.52H234.08z"/>
		<path d="M253.63,244.61h3.58v30.58h-3.58V244.61z"/>
	</g>
	<g>
		<path d="M223.64,120.14V99.27c0-2.29-1.86-4.15-4.15-4.15h-20.87l-14.76-14.76c-0.78-0.78-1.83-1.22-2.93-1.22
			c-1.11,0-2.15,0.43-2.93,1.22l-14.76,14.76h-20.87c-2.29,0-4.15,1.86-4.15,4.15v20.87l-14.76,14.76
			c-0.78,0.78-1.22,1.83-1.22,2.93s0.43,2.15,1.22,2.93l14.76,14.76v20.87c0,2.29,1.86,4.15,4.15,4.15h20.87L178,195.29
			c0.78,0.78,1.83,1.22,2.93,1.22c1.11,0,2.15-0.43,2.93-1.22l14.76-14.76h20.87c2.29,0,4.15-1.86,4.15-4.15v-20.87l14.76-14.76
			c1.62-1.62,1.62-4.25,0-5.87L223.64,120.14z M236.63,138.99l-15.12,15.12c-0.23,0.23-0.37,0.55-0.37,0.89v2.92h-5.6
			c-0.69,0-1.25,0.56-1.25,1.25s0.56,1.25,1.25,1.25h5.6v5.01h-24.17c-0.69,0-1.25,0.56-1.25,1.25s0.56,1.25,1.25,1.25h24.17v8.45
			c0,0.91-0.74,1.64-1.64,1.64h-21.39c-0.33,0-0.65,0.13-0.89,0.37l-15.12,15.12c-0.31,0.31-0.72,0.48-1.16,0.48
			s-0.85-0.17-1.16-0.48l-15.12-15.12c-0.23-0.23-0.55-0.37-0.89-0.37h-21.39c-0.91,0-1.64-0.74-1.64-1.64v-6.68h11.59
			c0.69,0,1.25-0.56,1.25-1.25c0-0.69-0.56-1.25-1.25-1.25h-11.59V155c0-0.33-0.13-0.65-0.37-0.89l-15.12-15.12
			c-0.31-0.31-0.48-0.72-0.48-1.16s0.17-0.85,0.48-1.16l2.33-2.33h16.36c0.69,0,1.25-0.56,1.25-1.25c0-0.69-0.56-1.25-1.25-1.25
			h-13.85l10.29-10.29c0.23-0.23,0.37-0.55,0.37-0.89v-5.32h32.37c0.69,0,1.25-0.56,1.25-1.25c0-0.69-0.56-1.25-1.25-1.25h-32.37
			v-6.78h13.36c0.69,0,1.25-0.56,1.25-1.25c0-0.69-0.56-1.25-1.25-1.25h-13.36v-4.27c0-0.91,0.74-1.64,1.64-1.64h21.39
			c0.33,0,0.65-0.13,0.89-0.37l15.12-15.12c0.31-0.31,0.72-0.48,1.16-0.48s0.85,0.17,1.16,0.48l15.12,15.12
			c0.23,0.23,0.55,0.37,0.89,0.37h21.39c0.91,0,1.64,0.74,1.64,1.64v9.14h-7.81c-0.69,0-1.25,0.56-1.25,1.25s0.56,1.25,1.25,1.25
			h7.81v9.75c0,0.33,0.13,0.65,0.37,0.89l15.12,15.12C237.27,137.3,237.27,138.35,236.63,138.99z"/>
		<path d="M251.02,134.43l-18.13-18.13V90.66c0-2.64-2.15-4.8-4.8-4.8h-25.64l-18.13-18.13c-0.91-0.91-2.11-1.4-3.39-1.4
			c-1.28,0-2.49,0.5-3.39,1.4l-18.13,18.13h-25.64c-2.64,0-4.8,2.15-4.8,4.8v25.64l-18.13,18.13c-1.87,1.87-1.87,4.91,0,6.78
			l18.13,18.13v25.64c0,2.64,2.15,4.8,4.8,4.8h25.64l18.13,18.13c0.91,0.91,2.11,1.4,3.39,1.4c1.28,0,2.49-0.5,3.39-1.4l18.13-18.13
			h25.64c2.64,0,4.8-2.15,4.8-4.8v-25.64l18.13-18.13C252.89,139.35,252.89,136.3,251.02,134.43z M249.25,139.44l-18.5,18.5
			c-0.23,0.23-0.37,0.55-0.37,0.89v26.16c0,1.26-1.03,2.29-2.29,2.29h-26.16c-0.33,0-0.65,0.13-0.89,0.37l-18.5,18.5
			c-0.43,0.43-1.01,0.67-1.62,0.67s-1.19-0.24-1.62-0.67l-18.5-18.5c-0.23-0.23-0.55-0.37-0.89-0.37h-26.16
			c-1.26,0-2.29-1.03-2.29-2.29v-26.16c0-0.33-0.13-0.65-0.37-0.89l-18.5-18.5c-0.89-0.89-0.89-2.35,0-3.24l18.5-18.5
			c0.23-0.23,0.37-0.55,0.37-0.89V90.66c0-1.26,1.03-2.29,2.29-2.29h26.16c0.33,0,0.65-0.13,0.89-0.37l18.5-18.5
			c0.43-0.43,1.01-0.67,1.62-0.67s1.19,0.24,1.62,0.67l18.5,18.5c0.23,0.23,0.55,0.37,0.89,0.37h26.16c1.26,0,2.29,1.03,2.29,2.29
			v26.16c0,0.33,0.13,0.65,0.37,0.89l18.5,18.5C250.14,137.1,250.14,138.55,249.25,139.44z"/>
	</g>
</g>
</svg>
