<?xml version="1.0" encoding="utf-8"?>
<!-- Generator: Adobe Illustrator 23.0.3, SVG Export Plug-In . SVG Version: 6.00 Build 0)  -->
<svg version="1.1" id="Layer_1" xmlns="http://www.w3.org/2000/svg" xmlns:xlink="http://www.w3.org/1999/xlink" x="0px" y="0px"
	 viewBox="0 0 352.29 330.83" style="enable-background:new 0 0 352.29 330.83;" xml:space="preserve">
<style type="text/css">
	.st0{fill:#FFFFFF;}
</style>
<g>
	<g>
		<path class="st0" d="M84.52,316.77c-32.94,0-59.73-26.8-59.73-59.73V73.79c0-32.94,26.8-59.73,59.73-59.73h183.25
			c32.94,0,59.73,26.8,59.73,59.73v183.25c0,32.94-26.8,59.73-59.73,59.73H84.52z"/>
		<path d="M267.77,14.56c32.66,0,59.23,26.57,59.23,59.23v183.25c0,32.66-26.57,59.23-59.23,59.23H84.52
			c-32.66,0-59.23-26.57-59.23-59.23V73.79c0-32.66,26.57-59.23,59.23-59.23H267.77 M267.77,13.56H84.52
			c-33.27,0-60.23,26.97-60.23,60.23v183.25c0,33.27,26.97,60.23,60.23,60.23h183.25c33.27,0,60.23-26.97,60.23-60.23V73.79
			C328,40.52,301.04,13.56,267.77,13.56L267.77,13.56z"/>
	</g>
	<g>
		<path d="M75.85,274.23c-3.22,0-5.73-0.82-7.53-2.45c-1.8-1.63-2.69-3.91-2.69-6.85c0-3.17,1-5.67,2.99-7.49
			c1.99-1.82,4.67-2.73,8.04-2.73h2.65v-2.54h3.44v18.91h4.58c0.13,0,0.2,0.05,0.2,0.16v2.79c0,0.13-0.07,0.2-0.2,0.2H75.85z
			 M79.31,271.09v-13.25h-2.54c-2.41,0-4.27,0.62-5.59,1.86c-1.32,1.24-1.98,2.97-1.98,5.2c0,2,0.57,3.54,1.71,4.6
			c1.14,1.06,2.76,1.59,4.85,1.59H79.31z M73.77,248.47c-0.63,0-1.16-0.19-1.6-0.57s-0.66-1-0.66-1.85c0-0.85,0.22-1.47,0.66-1.85
			c0.44-0.38,0.97-0.57,1.6-0.57c0.68,0,1.23,0.21,1.63,0.62c0.41,0.41,0.61,1.01,0.61,1.8c0,0.77-0.2,1.37-0.6,1.79
			C75.01,248.26,74.46,248.47,73.77,248.47z M80.72,248.47c-0.69,0-1.25-0.21-1.65-0.63c-0.41-0.42-0.61-1.01-0.61-1.79
			c0-0.77,0.2-1.37,0.6-1.79c0.4-0.42,0.95-0.63,1.66-0.63c0.72,0,1.28,0.22,1.67,0.66s0.59,1.03,0.59,1.76
			c0,0.73-0.2,1.32-0.59,1.76C82,248.25,81.44,248.47,80.72,248.47z"/>
		<path d="M86.93,274.23c-0.13,0-0.2-0.07-0.2-0.2v-2.79c0-0.1,0.07-0.16,0.2-0.16h5.31v-16.37h3.58v19.52H86.93z M93.85,282.29
			c-0.69,0-1.24-0.21-1.65-0.63c-0.41-0.42-0.61-1.02-0.61-1.79s0.2-1.37,0.6-1.79c0.4-0.42,0.95-0.63,1.66-0.63
			c0.72,0,1.28,0.22,1.67,0.66c0.39,0.44,0.59,1.02,0.59,1.76s-0.2,1.32-0.59,1.76C95.13,282.07,94.57,282.29,93.85,282.29z"/>
		<path d="M118.4,275.2c0,2.74-0.81,4.88-2.43,6.41c-1.62,1.53-3.91,2.3-6.87,2.3c-2.74,0-5.16-0.69-7.25-2.06l1.61-2.69
			c0.86,0.46,1.76,0.84,2.67,1.15c0.92,0.31,1.93,0.46,3.05,0.46c1.82,0,3.25-0.49,4.28-1.46c1.03-0.98,1.55-2.28,1.55-3.9v-1.16
			h-3.95c-2.86,0-5.07-0.79-6.63-2.36c-1.57-1.57-2.35-3.85-2.35-6.82c0-3.16,1-5.67,3.01-7.54c2-1.87,4.68-2.8,8.04-2.8h5.27v16.37
			h3.3c0.13,0,0.2,0.05,0.2,0.16v2.79c0,0.13-0.07,0.2-0.2,0.2h-3.3V275.2z M114.98,271.09v-13.25h-1.73
			c-2.39,0-4.24,0.63-5.57,1.89s-1.99,3.02-1.99,5.29c0,2.1,0.46,3.63,1.37,4.61c0.91,0.98,2.29,1.46,4.14,1.46H114.98z"/>
		<path d="M121.31,274.23c-0.13,0-0.2-0.07-0.2-0.2v-2.79c0-0.1,0.07-0.16,0.2-0.16h4.91v-27.44h3.42v19.71
			c1.26-3,2.84-5.26,4.74-6.78s4.04-2.28,6.41-2.28c3.04,0,5.34,0.83,6.89,2.48s2.33,4.23,2.33,7.74v6.56h5.31
			c0.14,0,0.22,0.05,0.22,0.16v2.79c0,0.13-0.07,0.2-0.22,0.2H121.31z M146.59,271.09v-6.39c0-2.48-0.54-4.3-1.62-5.46
			s-2.72-1.75-4.9-1.75c-4.13,0-7.6,3.43-10.42,10.3v3.3H146.59z"/>
		<path d="M154.92,274.23c-0.13,0-0.2-0.07-0.2-0.2v-2.79c0-0.1,0.07-0.16,0.2-0.16h17.26c-0.98-0.98-1.83-3.44-2.54-7.37
			c-0.39-2.32-0.96-3.94-1.71-4.87c-0.75-0.93-1.87-1.4-3.36-1.4c-1.86,0-3.81,0.54-5.84,1.61l-1.4-2.77
			c1.15-0.75,2.32-1.26,3.49-1.55s2.43-0.43,3.78-0.43c1.64,0,3.01,0.29,4.11,0.88c1.1,0.59,1.98,1.46,2.62,2.62
			c0.65,1.16,1.14,2.82,1.48,4.98c0.39,2.4,0.84,4.25,1.33,5.55c0.49,1.3,1.06,2.24,1.7,2.82v3.07H154.92z M165.06,250.88
			c-0.69,0-1.25-0.21-1.65-0.63c-0.41-0.42-0.61-1.02-0.61-1.79c0-0.77,0.2-1.37,0.6-1.79c0.4-0.42,0.95-0.63,1.66-0.63
			c0.72,0,1.28,0.22,1.67,0.66c0.39,0.44,0.59,1.03,0.59,1.76c0,0.73-0.2,1.32-0.59,1.76S165.78,250.88,165.06,250.88z"/>
		<path d="M194.76,271.66c0.55-0.07,0.98-0.14,1.3-0.24l2.28-0.41c-0.75-0.5-1.36-1.25-1.85-2.24c-0.49-1-0.73-2.08-0.73-3.26
			c0-1.63,0.34-3.01,1.03-4.17c0.69-1.15,1.66-2.04,2.93-2.65c1.26-0.62,2.72-0.92,4.37-0.92c1.93,0,3.55,0.39,4.88,1.18l-0.88,3.01
			c-1.32-0.69-2.63-1.04-3.91-1.04c-1.56,0-2.75,0.41-3.56,1.24c-0.81,0.83-1.22,2.03-1.22,3.6c0,1.01,0.23,1.93,0.7,2.75
			c0.46,0.83,1.08,1.42,1.84,1.79l0.88-0.1c4.06-0.52,6.54-0.79,7.45-0.79v3.26c-1.31,0-3.89,0.25-7.74,0.75
			c-3.85,0.5-6.44,0.89-7.76,1.18V271.66z"/>
		<path d="M215.91,243.65h3.58v30.58h-3.58V243.65z"/>
		<path d="M225.32,271.09h13.4c-0.52-3.6-1.53-6.67-3.01-9.21c-1.48-2.54-3.59-4.73-6.33-6.58l1.3-3.05
			c3.09,1.64,5.61,4.04,7.56,7.21c1.95,3.17,3.25,7.04,3.9,11.62h4.48c0.13,0,0.2,0.05,0.2,0.16v2.79c0,0.13-0.07,0.2-0.2,0.2
			h-21.31V271.09z"/>
		<path d="M246.21,274.23c-0.13,0-0.2-0.07-0.2-0.2v-2.79c0-0.1,0.07-0.16,0.2-0.16h6.23c-0.85-0.54-1.53-1.32-2.04-2.34
			s-0.77-2.16-0.77-3.42c0-1.64,0.36-3.08,1.08-4.31c0.72-1.24,1.7-2.19,2.94-2.87s2.59-1.01,4.06-1.01c5.21,0,7.82,2.88,7.82,8.65
			v5.31h5.27v-7.88c0-3.66-0.83-6.35-2.48-8.08c-1.65-1.73-4.25-2.59-7.78-2.59c-2.61,0-5.09,0.39-7.45,1.18l-0.92-3.11
			c2.52-0.84,5.31-1.26,8.37-1.26c4.38,0,7.75,1.18,10.12,3.55c2.37,2.37,3.56,5.69,3.56,9.97v11.36H246.21z M262.11,271.09v-4.7
			c0-1.98-0.38-3.43-1.15-4.34s-1.9-1.38-3.41-1.38c-1.36,0-2.43,0.42-3.19,1.25s-1.15,2.01-1.15,3.55c0,1.72,0.52,3.08,1.55,4.1
			s2.38,1.52,4.05,1.52H262.11z"/>
		<path d="M281.67,243.65h3.58v30.58h-3.58V243.65z"/>
	</g>
	<g>
		<g>
			<path d="M262.29,147.55c-3.13-9.78-8.91-18.18-16.82-24.51c6.17-3.38,10.32-7.86,12.02-13.15c2.53-7.85-0.78-15.71-7.54-17.9
				c-4.6-1.48-8.54-0.33-11.01,0.86c-1.3-2.41-3.83-5.65-8.43-7.13c-3.45-1.11-7.09-0.58-10.25,1.5c-2.91,1.92-5.16,4.97-6.33,8.61
				c-1.54,4.76-1.08,10.15,1.23,15.81c-6.04-0.26-12.05,0.56-17.91,2.43c-0.55,0.18-1.1,0.36-1.64,0.56
				c-3.97-9.02-10.34-16.59-18.65-22.11c-8.32-5.52-18.14-8.53-28.05-8.65c0.83-1.77,1.48-3.52,1.95-5.25
				c0.35-1.31-0.42-2.67-1.74-3.02c-1.31-0.36-2.67,0.42-3.02,1.74c-0.69,2.54-1.85,5.17-3.49,7.87c-0.01,0.02-0.02,0.03-0.03,0.05
				c-1.3,2.13-2.88,4.3-4.76,6.51c-1.27,1.49-3.31,2.15-5.2,1.68c-11.21-2.76-18.54-7.9-20.66-14.45
				c-1.71-5.31,0.16-10.34,4.37-11.69c4.39-1.42,7.92,0.81,8.9,1.53c0.7,0.51,1.62,0.66,2.45,0.4c0.83-0.27,1.48-0.92,1.76-1.75
				c0.38-1.15,1.95-5.03,6.33-6.44c4.2-1.36,8.66,1.63,10.38,6.93c0.02,0.07,0.05,0.15,0.07,0.23c0.39,1.3,1.77,2.04,3.07,1.65
				c1.3-0.39,2.04-1.77,1.65-3.07c-0.03-0.1-0.06-0.21-0.1-0.31c-2.53-7.85-9.82-12.3-16.58-10.11c-4.6,1.48-7.13,4.72-8.43,7.13
				c-2.47-1.19-6.41-2.34-11.01-0.86c-6.76,2.18-10.08,10.04-7.54,17.9c1.64,5.09,5.54,9.43,11.32,12.76
				c-8.28,5.82-14.75,14.05-18.47,23.55c-4.31,11.05-4.68,23.35-1.03,34.66c3.28,10.15,9.49,18.91,17.97,25.33
				c0.45,0.34,0.97,0.5,1.49,0.5c0.75,0,1.48-0.34,1.97-0.98c0.82-1.08,0.61-2.63-0.48-3.45c-7.67-5.8-13.29-13.73-16.25-22.92
				c-6.59-20.42,1.79-43.01,19.96-54.2c1.94,0.79,4.03,1.49,6.25,2.09c-7.99,3.84-14.65,10.25-18.95,18.66
				c-6.7,13.07-6.11,28.38,1.58,40.95c7.66,12.53,20.99,20,35.67,20c4.95,0,9.76-0.84,14.32-2.5c0.32,1.39,0.71,2.77,1.15,4.15
				c0.06,0.19,0.13,0.38,0.19,0.57c-0.42,0.15-0.85,0.3-1.28,0.43c-11.28,3.64-23.4,2.89-34.13-2.11c-1.23-0.57-2.7-0.04-3.27,1.19
				c-0.57,1.23-0.04,2.7,1.19,3.27c6.91,3.22,14.35,4.85,21.82,4.85c5.34,0,10.71-0.83,15.91-2.51c0.51-0.17,1.03-0.34,1.54-0.52
				c4.76,10.79,12.99,19.56,23.62,25.03c7.43,3.82,15.49,5.76,23.61,5.76c5.31,0,10.64-0.83,15.84-2.49
				c13.16-4.21,23.88-13.3,30.21-25.58C265.35,174.72,266.51,160.71,262.29,147.55z M218.63,97.35c0.83-2.57,2.38-4.71,4.35-6.01
				c0.96-0.63,2.32-1.26,3.96-1.26c0.65,0,1.34,0.1,2.06,0.33c4.39,1.42,5.95,5.29,6.33,6.44c0.27,0.83,0.93,1.48,1.75,1.75
				c0.83,0.27,1.74,0.12,2.44-0.39c0,0,0,0,0,0c0.98-0.72,4.52-2.94,8.9-1.53c4.2,1.36,6.08,6.38,4.37,11.69
				c-2.12,6.56-9.45,11.69-20.66,14.45c-1.9,0.47-3.94-0.19-5.2-1.68C219.47,112.36,216.51,103.9,218.63,97.35z M198.76,118.77
				c6.2-1.99,12.57-2.66,18.97-2c1.1,1.87,2.4,3.75,3.88,5.64c-0.11-0.02-0.23-0.05-0.34-0.07c-7.49-1.46-15.36-0.88-22.46,1.61
				c-0.33-1.44-0.72-2.87-1.17-4.27c-0.05-0.16-0.1-0.32-0.16-0.48C197.91,119.05,198.33,118.91,198.76,118.77z M146.16,88.84
				c21.09-1.01,40.18,12.15,46.7,32.38c6.02,18.65-0.4,39.21-15.63,51.18c-0.47-1.86-0.8-3.74-0.98-5.62
				c9.42-8.47,14.58-20.8,13.91-33.32c0.03-0.19,0.05-0.39,0.03-0.59c-0.22-3.42-0.87-6.85-1.93-10.17
				c-0.11-0.36-0.24-0.72-0.36-1.08c-0.08-0.24-0.2-0.46-0.35-0.66c-5.76-15.6-19.61-25.96-36.33-27.11
				c-3.06-0.21-6.06-0.09-8.98,0.31C143.71,92.39,145.02,90.61,146.16,88.84z M176.26,159.75c0.45-4.59,1.76-9.1,3.94-13.32
				c1.39-2.69,3.04-5.14,4.93-7.35C184.4,146.67,181.29,153.92,176.26,159.75z M164.3,146.02c-2.78,7.8-3.63,15.97-2.56,24.02
				c-4.25,1.66-8.76,2.5-13.42,2.5c-12.95,0-24.71-6.6-31.47-17.65c-6.78-11.1-7.31-24.6-1.4-36.14
				c6.84-13.35,20.41-21.01,35.43-19.98c14.35,0.98,26.3,9.66,31.62,22.8C174.2,127.66,167.78,136.27,164.3,146.02z M254.64,184.75
				c-5.72,11.11-15.43,19.33-27.33,23.14c-11.9,3.81-24.58,2.76-35.69-2.96c-11.11-5.72-19.33-15.42-23.15-27.33
				c-5.97-18.64,0.46-39.14,15.66-51.09c0.47,1.83,0.79,3.68,0.98,5.52c-3.76,3.38-6.89,7.45-9.3,12.13
				c-5.12,9.94-6.06,21.28-2.65,31.93c0.11,0.34,0.23,0.67,0.34,1.01c0.02,0.06,0.04,0.13,0.06,0.19
				c5.54,15.75,19.21,26.33,35.96,27.72c1.24,0.1,2.46,0.15,3.68,0.15c15.75,0,29.72-8.46,37.04-22.68
				c5.12-9.94,6.06-21.28,2.65-31.93c-0.74-2.3-1.65-4.53-2.73-6.63c-0.62-1.21-2.1-1.69-3.31-1.07c-1.21,0.62-1.69,2.1-1.07,3.31
				c0.95,1.86,1.76,3.84,2.42,5.89c3.01,9.4,2.18,19.41-2.33,28.18c-6.95,13.52-20.73,21.13-35.94,19.87
				c-14.17-1.17-25.84-9.8-31.09-22.76c8.34-6.1,14.78-14.75,18.25-24.54c2.75-7.77,3.59-15.89,2.53-23.91
				c14.05-5.33,30.49-1.67,40.54,9.2c0.49,0.53,1.15,0.79,1.81,0.79c0.6,0,1.2-0.22,1.67-0.65c1-0.92,1.06-2.48,0.14-3.48
				c-2.73-2.95-5.85-5.44-9.28-7.45c2.09-0.56,4.05-1.2,5.89-1.92c8.17,5.87,14.1,14.03,17.19,23.67
				C261.41,160.96,260.36,173.64,254.64,184.75z"/>
		</g>
	</g>
</g>
</svg>
