<?xml version="1.0" encoding="utf-8"?>
<!-- Generator: Adobe Illustrator 23.0.3, SVG Export Plug-In . SVG Version: 6.00 Build 0)  -->
<svg version="1.1" id="Layer_1" xmlns="http://www.w3.org/2000/svg" xmlns:xlink="http://www.w3.org/1999/xlink" x="0px" y="0px"
	 viewBox="0 0 352.29 330.83" style="enable-background:new 0 0 352.29 330.83;" xml:space="preserve">
<style type="text/css">
	.st0{fill:#FFFFFF;}
</style>
<g>
	<g>
		<path class="st0" d="M84.52,316.77c-32.94,0-59.73-26.8-59.73-59.73V73.79c0-32.94,26.8-59.73,59.73-59.73h183.25
			c32.94,0,59.73,26.8,59.73,59.73v183.25c0,32.94-26.8,59.73-59.73,59.73H84.52z"/>
		<path d="M267.77,14.56c32.66,0,59.23,26.57,59.23,59.23v183.25c0,32.66-26.57,59.23-59.23,59.23H84.52
			c-32.66,0-59.23-26.57-59.23-59.23V73.79c0-32.66,26.57-59.23,59.23-59.23H267.77 M267.77,13.56H84.52
			c-33.27,0-60.23,26.97-60.23,60.23v183.25c0,33.27,26.97,60.23,60.23,60.23h183.25c33.27,0,60.23-26.97,60.23-60.23V73.79
			C328,40.52,301.04,13.56,267.77,13.56L267.77,13.56z"/>
	</g>
	<g>
		<path d="M99.82,275.19c-1.91,0-2.87,0.98-2.87,2.95v9.93h-3.38v-10.54c0-1.17,0.22-2.16,0.65-2.97c0.43-0.81,1.02-1.43,1.76-1.87
			s1.58-0.65,2.51-0.65h0.27c-0.98-2.56-1.47-4.85-1.47-6.88c0-2.38,0.48-4.52,1.44-6.41c1-0.83,2.13-1.48,3.4-1.97
			c1.27-0.48,2.59-0.73,3.97-0.73c1.68,0,3.15,0.37,4.42,1.11c1.27,0.74,2.25,1.79,2.93,3.16c0.68,1.36,1.02,2.91,1.02,4.64
			c0,2.11-0.38,3.93-1.15,5.46c-0.77,1.53-1.85,2.71-3.24,3.53c-1.4,0.82-2.99,1.23-4.79,1.23H99.82z M100.9,264.48
			c0,1.25,0.11,2.47,0.32,3.67c0.22,1.2,0.62,2.5,1.21,3.9h2.85c1.79,0,3.17-0.61,4.13-1.83c0.96-1.22,1.43-2.98,1.43-5.29
			c0-1.69-0.46-3.07-1.39-4.15c-0.92-1.07-2.05-1.61-3.37-1.61c-1.69,0-3.26,0.55-4.72,1.65c-0.22,0.56-0.36,1.14-0.4,1.72
			S100.9,263.78,100.9,264.48z"/>
		<path d="M121.1,244.61h3.58v27.44h5.31c0.14,0,0.22,0.05,0.22,0.16V275c0,0.13-0.07,0.2-0.22,0.2h-8.88V244.61z"/>
		<path d="M129.59,275.19c-0.13,0-0.2-0.07-0.2-0.2v-2.79c0-0.1,0.07-0.16,0.2-0.16h6.19c-0.85-0.72-1.54-1.71-2.06-2.97
			s-0.79-2.65-0.79-4.19c0-3.03,0.87-5.39,2.6-7.09c1.74-1.7,4.06-2.54,6.97-2.54c1.15,0,2.22,0.12,3.19,0.34
			c0.98,0.23,1.78,0.51,2.41,0.84l-1.08,3.01c-1.66-0.69-3.24-1.04-4.72-1.04c-3.81,0-5.72,2.21-5.72,6.64
			c0,2.08,0.46,3.77,1.37,5.06c0.91,1.29,2.11,1.94,3.59,1.94h7.17v3.14H129.59z"/>
		<path d="M166.82,272.62c0.55-0.06,0.98-0.14,1.3-0.24l2.28-0.41c-0.75-0.5-1.36-1.24-1.85-2.24c-0.48-1-0.73-2.08-0.73-3.26
			c0-1.63,0.34-3.01,1.03-4.17c0.69-1.15,1.66-2.04,2.93-2.65c1.26-0.62,2.72-0.92,4.37-0.92c1.93,0,3.55,0.39,4.87,1.18l-0.88,3.01
			c-1.32-0.69-2.63-1.04-3.91-1.04c-1.56,0-2.75,0.41-3.56,1.24c-0.81,0.83-1.22,2.02-1.22,3.6c0,1.01,0.23,1.93,0.7,2.75
			c0.46,0.83,1.08,1.42,1.84,1.79l0.88-0.1c4.06-0.52,6.55-0.79,7.45-0.79v3.26c-1.31,0-3.89,0.25-7.74,0.75
			c-3.85,0.5-6.44,0.89-7.76,1.18V272.62z"/>
		<path d="M187.97,244.61h3.58v30.58h-3.58V244.61z"/>
		<path d="M197.38,272.05h13.4c-0.52-3.6-1.53-6.67-3.01-9.21c-1.48-2.54-3.59-4.73-6.33-6.57l1.3-3.05
			c3.09,1.64,5.61,4.04,7.56,7.21c1.95,3.17,3.25,7.04,3.9,11.62h4.48c0.13,0,0.2,0.05,0.2,0.16V275c0,0.13-0.07,0.2-0.2,0.2h-21.31
			V272.05z"/>
		<path d="M218.27,275.19c-0.13,0-0.2-0.07-0.2-0.2v-2.79c0-0.1,0.07-0.16,0.2-0.16h6.23c-0.85-0.54-1.53-1.32-2.04-2.34
			c-0.51-1.02-0.77-2.16-0.77-3.42c0-1.64,0.36-3.08,1.08-4.31s1.7-2.19,2.94-2.87s2.59-1.01,4.06-1.01c5.21,0,7.82,2.88,7.82,8.65
			v5.31h5.27v-7.88c0-3.66-0.83-6.35-2.48-8.08c-1.65-1.73-4.25-2.59-7.78-2.59c-2.61,0-5.09,0.39-7.45,1.18l-0.92-3.11
			c2.52-0.84,5.31-1.26,8.37-1.26c4.38,0,7.75,1.18,10.12,3.55c2.37,2.37,3.56,5.69,3.56,9.97v11.36H218.27z M234.17,272.05v-4.7
			c0-1.98-0.38-3.43-1.15-4.34s-1.9-1.38-3.41-1.38c-1.36,0-2.43,0.42-3.19,1.25s-1.15,2.01-1.15,3.55c0,1.72,0.52,3.08,1.55,4.1
			s2.38,1.52,4.05,1.52H234.17z"/>
		<path d="M253.73,244.61h3.58v30.58h-3.58V244.61z"/>
	</g>
	<g>
		<path d="M235.9,96.36h-10.04c0.29-0.41,0.56-0.84,0.79-1.29c1.33-2.59,1.51-5.65,0.49-8.38l-3.04-8.18
			c-1.01-2.73-3.15-4.93-5.84-6.02c-2.7-1.1-5.76-1.01-8.4,0.24l-24.08,11.44c-1.19-0.85-2.65-1.35-4.22-1.35h-10.83
			c-1.57,0-3.03,0.5-4.22,1.35l-24.08-11.44c-2.64-1.25-5.7-1.34-8.4-0.24c-2.7,1.1-4.83,3.29-5.84,6.02l-3.04,8.18
			c-1.02,2.73-0.84,5.79,0.49,8.38c0.23,0.45,0.5,0.88,0.79,1.29h-10.04c-1.05,0-1.9,0.85-1.9,1.9v13.7c0,1.05,0.85,1.9,1.9,1.9
			c1.05,0,1.9-0.85,1.9-1.9v-11.8h13.22c0.21,0.07,0.43,0.14,0.64,0.2l15.98,4.4c-3.55,5.44-6.68,11.16-9.36,17.09H118.3v-2.28
			c0-1.05-0.85-1.9-1.9-1.9c-1.05,0-1.9,0.85-1.9,1.9v4.19c0,1.05,0.85,1.9,1.9,1.9h6.79v67.38c0,1.05,0.85,1.9,1.9,1.9h102.13
			c1.05,0,1.9-0.85,1.9-1.9V182c0-1.05-0.85-1.9-1.9-1.9c-1.05,0-1.9,0.85-1.9,1.9v9.15h-37.74v-64.3
			c5.39,10.21,9.04,21.31,10.72,32.78c0.11,0.76,0.67,1.38,1.41,1.57c0.16,0.04,0.31,0.06,0.47,0.06c0.59,0,1.15-0.27,1.52-0.76
			c2.74-3.63,5.28-7.52,7.58-11.57c3.85,2.62,7.58,5.54,11.12,8.7c0.6,0.53,1.46,0.64,2.17,0.25c0.7-0.38,1.1-1.16,0.98-1.95
			c-1.52-10.36-4.35-20.56-8.37-30.26h10.14v48.71c0,1.05,0.85,1.9,1.9,1.9c1.05,0,1.9-0.85,1.9-1.9v-48.71h6.79
			c1.05,0,1.9-0.85,1.9-1.9v-25.5C237.8,97.22,236.95,96.36,235.9,96.36z M211.49,76.17c1.7-0.81,3.59-0.86,5.33-0.15
			c1.74,0.71,3.06,2.06,3.71,3.82l3.04,8.18c0.65,1.76,0.54,3.65-0.31,5.32c-0.86,1.67-2.32,2.87-4.13,3.36l-30.29,8.34V95.9
			c6.81-4.17,23.79-12.77,28.01-6.81c0.61,0.86,1.79,1.06,2.65,0.45c0.86-0.61,1.06-1.8,0.45-2.65c-3.26-4.6-10.13-4.83-20.43-0.66
			c-4.24,1.71-8.15,3.81-10.69,5.26v-1.4c0-1.02-0.21-1.99-0.59-2.87L211.49,76.17z M170.73,86.62h10.83c1.91,0,3.46,1.55,3.46,3.46
			v15.73c0,1.91-1.55,3.46-3.46,3.46h-10.83c-1.91,0-3.46-1.55-3.46-3.46V90.08C167.27,88.17,168.82,86.62,170.73,86.62z
			 M167.53,121.86c1.82-3.02,3.8-5.96,5.93-8.78h5.36c2.13,2.83,4.11,5.76,5.93,8.78H167.53z M129.03,93.34
			c-0.86-1.67-0.97-3.56-0.31-5.32l3.04-8.18c0.65-1.76,1.97-3.12,3.71-3.82c1.74-0.71,3.63-0.65,5.33,0.15l23.25,11.04
			c-0.38,0.88-0.59,1.85-0.59,2.87v1.51c-2.53-1.45-6.53-3.61-10.88-5.37c-10.29-4.16-17.16-3.94-20.43,0.66
			c-0.61,0.86-0.4,2.05,0.45,2.65c0.86,0.61,2.05,0.4,2.65-0.45c4.26-6.02,21.52,2.8,28.2,6.92v9.03l-30.29-8.34
			C131.36,96.21,129.89,95.01,129.03,93.34z M164.32,109.23c0.95,1.77,2.61,3.11,4.59,3.62c-8.9,12.42-15.03,26.69-17.9,41.69
			c-2.02-2.95-3.91-6.05-5.64-9.25c-0.25-0.47-0.69-0.81-1.21-0.94c-0.52-0.13-1.06-0.04-1.51,0.25c-3.17,2.07-6.27,4.33-9.27,6.77
			c3.09-16.2,9.46-31.83,18.61-45.53L164.32,109.23z M126.99,125.67h10.14c-4.02,9.7-6.85,19.89-8.37,30.26
			c-0.12,0.79,0.28,1.57,0.98,1.95c0.71,0.38,1.57,0.28,2.17-0.25c3.54-3.16,7.28-6.08,11.12-8.7c2.3,4.06,4.84,7.94,7.58,11.57
			c0.37,0.48,0.93,0.76,1.52,0.76c0.16,0,0.32-0.02,0.47-0.06c0.74-0.19,1.3-0.81,1.41-1.57c1.68-11.47,5.33-22.57,10.72-32.78
			v64.31h-37.74V125.67z M168.53,191.15v-65.47h15.22v65.47H168.53z M209.64,144.6c-0.45-0.29-0.99-0.38-1.51-0.25
			c-0.52,0.13-0.95,0.47-1.21,0.94c-1.73,3.2-3.62,6.29-5.64,9.25c-2.87-15-9-29.27-17.9-41.68c1.99-0.51,3.65-1.85,4.6-3.62
			l12.33-3.39c9.14,13.71,15.52,29.33,18.61,45.54C215.91,148.93,212.81,146.67,209.64,144.6z M234,121.87h-20.48
			c-2.68-5.93-5.81-11.65-9.36-17.09l15.98-4.4c0.22-0.06,0.43-0.13,0.64-0.2H234V121.87z"/>
	</g>
</g>
</svg>
