<?xml version="1.0" encoding="utf-8"?>
<!-- Generator: Adobe Illustrator 23.0.3, SVG Export Plug-In . SVG Version: 6.00 Build 0)  -->
<svg version="1.1" id="Layer_1" xmlns="http://www.w3.org/2000/svg" xmlns:xlink="http://www.w3.org/1999/xlink" x="0px" y="0px"
	 viewBox="0 0 352.29 330.83" style="enable-background:new 0 0 352.29 330.83;" xml:space="preserve">
<style type="text/css">
	.st0{fill:#FFFFFF;}
</style>
<g>
	<g>
		<path class="st0" d="M84.52,316.77c-32.94,0-59.73-26.8-59.73-59.73V73.79c0-32.94,26.8-59.73,59.73-59.73h183.25
			c32.94,0,59.73,26.8,59.73,59.73v183.25c0,32.94-26.8,59.73-59.73,59.73H84.52z"/>
		<path d="M267.77,14.56c32.66,0,59.23,26.57,59.23,59.23v183.25c0,32.66-26.57,59.23-59.23,59.23H84.52
			c-32.66,0-59.23-26.57-59.23-59.23V73.79c0-32.66,26.57-59.23,59.23-59.23H267.77 M267.77,13.56H84.52
			c-33.27,0-60.23,26.97-60.23,60.23v183.25c0,33.27,26.97,60.23,60.23,60.23h183.25c33.27,0,60.23-26.97,60.23-60.23V73.79
			C328,40.53,301.03,13.56,267.77,13.56L267.77,13.56z"/>
	</g>
	<g>
		<path d="M102.63,273.74c-0.72-0.58-1.34-1.13-1.85-1.67c-0.51-0.54-0.96-1.16-1.34-1.87c-4.49,1.22-7.7,2.54-9.62,3.95
			s-2.88,3.05-2.88,4.91c0,1.72,0.5,2.98,1.49,3.78c1,0.8,2.55,1.21,4.66,1.21c1.35,0,3.32-0.22,5.92-0.65l0.43,2.77
			c-1.9,0.41-3.41,0.67-4.52,0.79c-1.11,0.12-2.21,0.18-3.28,0.18c-2.59,0-4.64-0.68-6.13-2.03c-1.49-1.36-2.24-3.27-2.24-5.73
			c0-1.69,0.49-3.24,1.47-4.66s2.53-2.71,4.64-3.88s5.1-2.34,8.98-3.49c-0.21-0.71-0.47-1.92-0.77-3.64
			c-0.35-2.12-1.01-3.7-1.98-4.73c-0.96-1.03-2.26-1.54-3.9-1.54c-0.96,0-2.11,0.19-3.46,0.58s-2.54,0.86-3.58,1.42l-1.42-2.77
			c1.04-0.67,2.33-1.23,3.89-1.69s3.09-0.69,4.6-0.69c5.14,0,8.14,2.83,9.02,8.49c0.33,2.1,0.81,3.8,1.43,5.12
			c0.63,1.32,1.48,2.34,2.56,3.06L102.63,273.74z M93.53,281.09c-0.69,0-1.25-0.21-1.65-0.63c-0.41-0.42-0.61-1.02-0.61-1.79
			s0.2-1.37,0.6-1.79c0.4-0.42,0.95-0.63,1.66-0.63c0.72,0,1.28,0.22,1.67,0.66s0.59,1.03,0.59,1.76s-0.2,1.32-0.59,1.76
			C94.81,280.88,94.25,281.09,93.53,281.09z"/>
		<path d="M117.06,274.24v0.96c0,2.71-0.62,4.84-1.85,6.39s-3.01,2.32-5.33,2.32c-1.28,0-2.65-0.38-4.11-1.14l1.04-2.69
			c0.65,0.29,1.19,0.47,1.61,0.56s0.88,0.13,1.38,0.13c1.21,0,2.15-0.49,2.83-1.47s1.02-2.28,1.02-3.89v-20.68h3.4v16.37h4.97
			c0.14,0,0.22,0.05,0.22,0.16v2.79c0,0.13-0.07,0.2-0.22,0.2h-4.96V274.24z"/>
		<path d="M121.64,274.24c-0.13,0-0.2-0.07-0.2-0.2v-2.79c0-0.1,0.07-0.16,0.2-0.16h17.26c-1.04-1.04-1.88-3.49-2.54-7.37
			c-0.38-2.28-0.95-3.89-1.71-4.84c-0.76-0.95-1.88-1.43-3.36-1.43c-1.86,0-3.81,0.54-5.84,1.61l-1.4-2.77
			c1.15-0.75,2.32-1.26,3.49-1.55c1.17-0.29,2.43-0.43,3.78-0.43c1.64,0,3.01,0.29,4.11,0.88s1.98,1.46,2.62,2.62
			c0.65,1.16,1.14,2.82,1.48,4.98c0.62,4.21,1.59,6.97,2.91,8.29h2.69c0.13,0,0.2,0.05,0.2,0.16v2.79c0,0.13-0.07,0.2-0.2,0.2
			L121.64,274.24L121.64,274.24z M131.78,250.89c-0.69,0-1.25-0.21-1.65-0.63c-0.41-0.42-0.61-1.02-0.61-1.79
			c0-0.77,0.2-1.37,0.6-1.79c0.4-0.42,0.95-0.63,1.66-0.63c0.72,0,1.28,0.22,1.67,0.66c0.39,0.44,0.59,1.03,0.59,1.76
			s-0.2,1.32-0.59,1.76S132.5,250.89,131.78,250.89z"/>
		<path d="M144.75,274.24c-0.13,0-0.2-0.07-0.2-0.2v-2.79c0-0.1,0.07-0.16,0.2-0.16h7.72v-16.37h3.58v19.52L144.75,274.24
			L144.75,274.24z M150.55,250.89c-0.63,0-1.16-0.19-1.6-0.57s-0.66-1-0.66-1.85s0.22-1.47,0.66-1.85s0.97-0.57,1.6-0.57
			c0.68,0,1.23,0.21,1.63,0.62c0.41,0.41,0.61,1.01,0.61,1.8c0,0.77-0.2,1.37-0.6,1.79C151.79,250.68,151.25,250.89,150.55,250.89z
			 M157.51,250.89c-0.69,0-1.25-0.21-1.65-0.63c-0.41-0.42-0.61-1.02-0.61-1.79c0-0.77,0.2-1.37,0.6-1.79
			c0.4-0.42,0.95-0.63,1.66-0.63c0.72,0,1.28,0.22,1.67,0.66c0.39,0.44,0.59,1.03,0.59,1.76s-0.2,1.32-0.59,1.76
			S158.23,250.89,157.51,250.89z"/>
		<path d="M176.3,271.66c0.55-0.07,0.98-0.14,1.3-0.24l2.28-0.41c-0.75-0.5-1.36-1.25-1.85-2.24c-0.49-1-0.73-2.08-0.73-3.26
			c0-1.63,0.34-3.01,1.03-4.17c0.69-1.15,1.66-2.04,2.93-2.65c1.26-0.62,2.72-0.92,4.37-0.92c1.93,0,3.55,0.39,4.87,1.18l-0.88,3.01
			c-1.32-0.69-2.63-1.04-3.91-1.04c-1.56,0-2.75,0.41-3.56,1.24s-1.22,2.03-1.22,3.6c0,1.01,0.23,1.93,0.7,2.75s1.08,1.42,1.84,1.79
			l0.88-0.1c4.06-0.52,6.54-0.79,7.45-0.79v3.26c-1.31,0-3.89,0.25-7.74,0.75s-6.44,0.89-7.76,1.18L176.3,271.66L176.3,271.66z"/>
		<path d="M197.45,243.65h3.58v30.58h-3.58V243.65z"/>
		<path d="M206.86,271.09h13.4c-0.52-3.6-1.53-6.67-3.01-9.21c-1.48-2.54-3.59-4.73-6.33-6.58l1.3-3.05
			c3.09,1.64,5.61,4.04,7.56,7.21c1.95,3.17,3.25,7.04,3.9,11.62h4.48c0.13,0,0.2,0.05,0.2,0.16v2.79c0,0.13-0.07,0.2-0.2,0.2h-21.3
			V271.09z"/>
		<path d="M227.75,274.24c-0.13,0-0.2-0.07-0.2-0.2v-2.79c0-0.1,0.07-0.16,0.2-0.16h6.23c-0.85-0.54-1.53-1.32-2.04-2.34
			c-0.51-1.02-0.77-2.16-0.77-3.42c0-1.64,0.36-3.08,1.08-4.31c0.72-1.24,1.7-2.19,2.94-2.87s2.59-1.01,4.06-1.01
			c5.21,0,7.82,2.88,7.82,8.65v5.31h5.27v-7.88c0-3.66-0.83-6.35-2.48-8.08c-1.65-1.73-4.25-2.59-7.78-2.59
			c-2.61,0-5.09,0.39-7.45,1.18l-0.92-3.11c2.52-0.84,5.31-1.26,8.37-1.26c4.38,0,7.75,1.18,10.12,3.55s3.56,5.69,3.56,9.97v11.36
			L227.75,274.24L227.75,274.24z M243.65,271.09v-4.7c0-1.98-0.38-3.43-1.15-4.34c-0.77-0.92-1.9-1.38-3.41-1.38
			c-1.36,0-2.43,0.42-3.19,1.25s-1.15,2.01-1.15,3.55c0,1.72,0.52,3.08,1.55,4.1s2.38,1.52,4.05,1.52L243.65,271.09L243.65,271.09z"
			/>
		<path d="M263.21,243.65h3.58v30.58h-3.58V243.65z"/>
	</g>
	<g>
		<g>
			<g>
				<path d="M207.96,189.76c-1.51-0.38-3.04,0.54-3.41,2.05l-2.81,11.26c-0.38,1.51,0.54,3.04,2.05,3.41
					c0.23,0.06,0.46,0.08,0.68,0.08c1.26,0,2.41-0.85,2.73-2.13l2.81-11.26C210.39,191.67,209.47,190.14,207.96,189.76z"/>
				<path d="M173.51,133.38c0.37,0,0.73-0.07,1.08-0.21l30.96-12.81c1.44-0.59,2.12-2.24,1.52-3.68c-0.59-1.44-2.25-2.11-3.68-1.53
					l-29.88,12.37L94.7,94.91v-0.93c0-1.55-1.26-2.81-2.81-2.81s-2.82,1.26-2.82,2.81v2.81c0,1.14,0.69,2.17,1.74,2.6l81.63,33.78
					C172.77,133.31,173.14,133.38,173.51,133.38z"/>
				<path d="M206.99,162.22c-0.69-1.39-2.37-1.97-3.77-1.28c-5.35,2.64-14.27,5.72-26.9,6.14v-25.25c0-1.55-1.26-2.81-2.81-2.81
					s-2.81,1.26-2.81,2.81v25.23c-34.95-1.11-46.23-22.29-47.85-25.81v-19.12c0-1.55-1.26-2.81-2.81-2.81s-2.81,1.26-2.81,2.81v19.7
					c0,0.36,0.07,0.71,0.2,1.05c0.49,1.22,12.47,29.92,56.1,29.92c15.25,0,25.93-3.7,32.21-6.8
					C207.11,165.3,207.68,163.61,206.99,162.22z"/>
				<path d="M215.73,192.49c-1.56,0-2.81,1.26-2.81,2.81v8.44c0,1.55,1.26,2.81,2.81,2.81c1.56,0,2.81-1.26,2.81-2.81v-8.44
					C218.54,193.75,217.28,192.49,215.73,192.49z"/>
				<path d="M255.13,91.16c-1.56,0-2.81,1.26-2.81,2.81v0.93l-33.78,13.9v-5.09l37.67-15.59c1.05-0.43,1.74-1.46,1.74-2.6
					s-0.69-2.16-1.74-2.6l-81.63-33.78c-0.69-0.28-1.46-0.28-2.15,0L90.8,82.92c-1.05,0.44-1.74,1.46-1.74,2.6s0.69,2.17,1.74,2.6
					l81.63,33.78c0.34,0.14,0.71,0.21,1.08,0.21s0.73-0.07,1.08-0.21l29.52-12.21c1.44-0.59,2.12-2.24,1.53-3.68
					c-0.59-1.44-2.24-2.11-3.68-1.52l-28.44,11.77L99.25,85.53l74.27-30.73l74.27,30.73L215.47,98.9L184.5,87.35
					c0.16-0.59,0.26-1.19,0.26-1.82c0-4.73-4.95-8.44-11.26-8.44s-11.26,3.71-11.26,8.44s4.95,8.44,11.26,8.44
					c2.82,0,5.33-0.77,7.28-2.01l32.12,11.99v9.02l0,0v60.32c-3.27,1.17-5.63,4.26-5.63,7.93c0,4.66,3.79,8.44,8.44,8.44
					c4.66,0,8.44-3.79,8.44-8.44c0-3.66-2.36-6.76-5.63-7.93v-15.98c8.08-6.1,10.98-14.22,11.1-14.58c0.1-0.3,0.15-0.61,0.15-0.92
					v-19.7c0-1.55-1.26-2.81-2.81-2.81s-2.81,1.26-2.81,2.81v19.18c-0.49,1.19-2.18,4.87-5.63,8.5v-34.92l37.66-15.5
					c1.06-0.43,1.74-1.46,1.74-2.6v-2.81C257.95,92.42,256.69,91.16,255.13,91.16z M173.51,88.34c-3.44,0-5.63-1.67-5.63-2.81
					c0-1.15,2.19-2.81,5.63-2.81s5.63,1.67,5.63,2.81C179.14,86.68,176.94,88.34,173.51,88.34z M215.73,184.05
					c-1.55,0-2.81-1.26-2.81-2.81s1.26-2.81,2.81-2.81s2.81,1.26,2.81,2.81C218.54,182.78,217.28,184.05,215.73,184.05z"/>
				<path d="M226.9,191.81c-0.38-1.51-1.91-2.43-3.41-2.05c-1.51,0.38-2.43,1.91-2.05,3.41l2.81,11.26
					c0.32,1.28,1.47,2.13,2.73,2.13c0.23,0,0.46-0.03,0.68-0.08c1.51-0.38,2.43-1.9,2.05-3.41L226.9,191.81z"/>
			</g>
		</g>
	</g>
</g>
</svg>
