<?xml version="1.0" encoding="utf-8"?>
<!-- Generator: Adobe Illustrator 23.0.3, SVG Export Plug-In . SVG Version: 6.00 Build 0)  -->
<svg version="1.1" id="Layer_1" xmlns="http://www.w3.org/2000/svg" xmlns:xlink="http://www.w3.org/1999/xlink" x="0px" y="0px"
	 viewBox="0 0 352.29 330.83" style="enable-background:new 0 0 352.29 330.83;" xml:space="preserve">
<style type="text/css">
	.st0{fill:#FFFFFF;}
</style>
<g>
	<g>
		<path class="st0" d="M84.52,316.77c-32.94,0-59.73-26.8-59.73-59.73V73.79c0-32.94,26.8-59.73,59.73-59.73h183.25
			c32.94,0,59.73,26.8,59.73,59.73v183.25c0,32.94-26.8,59.73-59.73,59.73L84.52,316.77L84.52,316.77z"/>
		<path d="M267.77,14.56c32.66,0,59.23,26.57,59.23,59.23v183.25c0,32.66-26.57,59.23-59.23,59.23H84.52
			c-32.66,0-59.23-26.57-59.23-59.23V73.79c0-32.66,26.57-59.23,59.23-59.23L267.77,14.56 M267.77,13.56H84.52
			c-33.27,0-60.23,26.97-60.23,60.23v183.25c0,33.27,26.97,60.23,60.23,60.23h183.25c33.27,0,60.23-26.97,60.23-60.23V73.79
			C328,40.52,301.04,13.56,267.77,13.56L267.77,13.56z"/>
	</g>
	<g>
		<path d="M76.66,284.86c-2.52,0-4.49-0.87-5.94-2.61c-1.44-1.74-2.16-4.11-2.16-7.09c0-3.21,0.55-6.18,1.65-8.9h3.34
			c-0.92,2.32-1.38,5.21-1.38,8.67c0,2.17,0.45,3.85,1.36,5.03c0.9,1.18,2.2,1.77,3.89,1.77h1.97c2.33,0,4.04-0.53,5.13-1.59
			s1.63-2.67,1.63-4.82v-19.63h3.42v19.36c0,3.25-0.81,5.7-2.42,7.35s-4.15,2.48-7.61,2.48h-2.88
			C76.66,284.88,76.66,284.86,76.66,284.86z M79.16,255.66c-0.69,0-1.24-0.21-1.65-0.63s-0.61-1.02-0.61-1.79
			c0-0.77,0.2-1.37,0.6-1.79s0.95-0.63,1.66-0.63c0.72,0,1.28,0.22,1.67,0.66s0.59,1.03,0.59,1.76s-0.2,1.32-0.59,1.76
			C80.44,255.44,79.88,255.66,79.16,255.66z"/>
		<path d="M97.03,244.61h3.58v27.44h5.31c0.14,0,0.22,0.05,0.22,0.16V275c0,0.13-0.07,0.2-0.22,0.2h-8.88v-30.59L97.03,244.61
			L97.03,244.61z"/>
		<path d="M105.52,275.19c-0.13,0-0.2-0.07-0.2-0.2v-2.79c0-0.1,0.07-0.16,0.2-0.16h4.91v-15.17h3.42v7.45
			c1.26-3,2.84-5.26,4.74-6.78s4.04-2.28,6.41-2.28c3.04,0,5.34,0.83,6.89,2.48s2.33,4.23,2.33,7.74v6.56h5.31
			c0.14,0,0.22,0.05,0.22,0.16v2.8c0,0.13-0.07,0.2-0.22,0.2L105.52,275.19C105.52,275.2,105.52,275.19,105.52,275.19z
			 M130.79,272.05v-6.39c0-2.48-0.54-4.3-1.62-5.46s-2.72-1.75-4.9-1.75c-4.13,0-7.6,3.43-10.42,10.3v3.3L130.79,272.05
			L130.79,272.05z M123.91,251.84c-0.69,0-1.25-0.21-1.65-0.63c-0.41-0.42-0.61-1.01-0.61-1.79s0.2-1.37,0.6-1.79
			s0.95-0.63,1.66-0.63c0.72,0,1.28,0.22,1.67,0.66s0.59,1.03,0.59,1.76s-0.2,1.32-0.59,1.76
			C125.19,251.63,124.63,251.84,123.91,251.84z"/>
		<path d="M139.13,275.19c-0.13,0-0.2-0.07-0.2-0.2v-2.79c0-0.1,0.07-0.16,0.2-0.16h4.99c-1-2.59-1.49-4.89-1.49-6.88
			c0-2.4,0.48-4.53,1.45-6.41c0.98-0.83,2.11-1.48,3.38-1.97c1.27-0.48,2.59-0.73,3.97-0.73c1.68,0,3.15,0.37,4.42,1.11
			s2.25,1.79,2.93,3.16c0.68,1.36,1.02,2.91,1.02,4.64c0,2.11-0.38,3.93-1.15,5.46c-0.77,1.53-1.85,2.71-3.24,3.53
			c-1.4,0.82-2.99,1.23-4.79,1.23h-11.49V275.19z M146.24,264.48c0,1.25,0.11,2.47,0.33,3.67s0.62,2.5,1.2,3.9h2.85
			c1.79,0,3.17-0.61,4.13-1.83s1.43-2.98,1.43-5.29c0-1.69-0.46-3.07-1.39-4.15c-0.92-1.07-2.05-1.61-3.37-1.61
			c-0.85,0-1.69,0.15-2.51,0.45c-0.82,0.3-1.55,0.7-2.19,1.2c-0.22,0.56-0.36,1.14-0.41,1.72
			C146.27,263.13,146.24,263.78,146.24,264.48z"/>
		<path d="M164.93,284.86c-1.28,0-2.65-0.38-4.11-1.14l1.04-2.69c0.65,0.29,1.19,0.48,1.61,0.56s0.88,0.13,1.38,0.13
			c1.21,0,2.15-0.49,2.83-1.47c0.68-0.98,1.02-2.28,1.02-3.89v-20.68h3.4v20.48c0,2.71-0.62,4.84-1.85,6.39
			S167.25,284.86,164.93,284.86z"/>
		<path d="M191.82,272.62c0.55-0.06,0.98-0.14,1.3-0.24l2.28-0.41c-0.75-0.5-1.36-1.24-1.85-2.24s-0.73-2.08-0.73-3.26
			c0-1.63,0.34-3.01,1.03-4.17c0.69-1.15,1.66-2.04,2.93-2.65c1.26-0.62,2.72-0.92,4.37-0.92c1.93,0,3.55,0.39,4.87,1.18l-0.88,3.01
			c-1.32-0.69-2.63-1.04-3.91-1.04c-1.56,0-2.75,0.41-3.56,1.24s-1.22,2.02-1.22,3.6c0,1.01,0.23,1.93,0.7,2.75s1.08,1.42,1.84,1.79
			l0.88-0.1c4.06-0.52,6.54-0.79,7.45-0.79v3.26c-1.31,0-3.89,0.25-7.74,0.75s-6.44,0.89-7.76,1.18L191.82,272.62L191.82,272.62z"/>
		<path d="M212.97,244.61h3.58v30.58h-3.58V244.61z"/>
		<path d="M222.38,272.05h13.4c-0.52-3.6-1.53-6.67-3.01-9.21c-1.48-2.54-3.59-4.73-6.33-6.57l1.3-3.05
			c3.09,1.64,5.61,4.04,7.56,7.21s3.25,7.04,3.9,11.62h4.48c0.13,0,0.2,0.05,0.2,0.16V275c0,0.13-0.07,0.2-0.2,0.2h-21.31v-3.15
			L222.38,272.05L222.38,272.05z"/>
		<path d="M243.27,275.19c-0.13,0-0.2-0.07-0.2-0.2v-2.79c0-0.1,0.07-0.16,0.2-0.16h6.23c-0.85-0.54-1.53-1.32-2.04-2.34
			s-0.77-2.16-0.77-3.42c0-1.64,0.36-3.08,1.08-4.31s1.7-2.19,2.94-2.87s2.59-1.01,4.06-1.01c5.21,0,7.82,2.88,7.82,8.65v5.31h5.27
			v-7.88c0-3.66-0.83-6.35-2.48-8.08c-1.65-1.73-4.25-2.59-7.78-2.59c-2.61,0-5.09,0.39-7.45,1.18l-0.92-3.11
			c2.52-0.84,5.31-1.26,8.37-1.26c4.38,0,7.75,1.18,10.12,3.55s3.56,5.69,3.56,9.97v11.36L243.27,275.19L243.27,275.19z
			 M259.17,272.05v-4.7c0-1.98-0.38-3.43-1.15-4.34s-1.9-1.38-3.41-1.38c-1.36,0-2.43,0.42-3.19,1.25s-1.15,2.01-1.15,3.55
			c0,1.72,0.52,3.08,1.55,4.1s2.38,1.52,4.05,1.52L259.17,272.05L259.17,272.05z"/>
		<path d="M278.73,244.61h3.58v30.58h-3.58V244.61z"/>
	</g>
	<g>
		<g>
			<g>
				<g>
					<defs>
						<path id="SVGID_1_" d="M84.52,317.27h183.25c33.27,0,60.23-26.97,60.23-60.23V73.79c0-33.27-26.97-60.23-60.23-60.23H84.52
							c-33.27,0-60.23,26.97-60.23,60.23v183.25C24.29,290.31,51.25,317.27,84.52,317.27z"/>
					</defs>
					<clipPath id="SVGID_2_">
						<use xlink:href="#SVGID_1_"  style="overflow:visible;"/>
					</clipPath>
				</g>
			</g>
		</g>
	</g>
</g>
</svg>
