<?xml version="1.0" encoding="utf-8"?>
<!-- Generator: Adobe Illustrator 23.0.3, SVG Export Plug-In . SVG Version: 6.00 Build 0)  -->
<svg version="1.1" id="Layer_1" xmlns="http://www.w3.org/2000/svg" xmlns:xlink="http://www.w3.org/1999/xlink" x="0px" y="0px"
	 viewBox="0 0 352.29 330.83" style="enable-background:new 0 0 352.29 330.83;" xml:space="preserve">
<style type="text/css">
	.st0{fill:#FFFFFF;}
</style>
<g>
	<g>
		<path class="st0" d="M84.52,316.77c-32.94,0-59.73-26.8-59.73-59.73V73.79c0-32.94,26.8-59.73,59.73-59.73h183.25
			c32.94,0,59.73,26.8,59.73,59.73v183.25c0,32.94-26.8,59.73-59.73,59.73H84.52z"/>
		<path d="M267.77,14.56c32.66,0,59.23,26.57,59.23,59.23v183.25c0,32.66-26.57,59.23-59.23,59.23H84.52
			c-32.66,0-59.23-26.57-59.23-59.23V73.79c0-32.66,26.57-59.23,59.23-59.23H267.77 M267.77,13.56H84.52
			c-33.27,0-60.23,26.97-60.23,60.23v183.25c0,33.27,26.97,60.23,60.23,60.23h183.25c33.27,0,60.23-26.97,60.23-60.23V73.79
			C328,40.52,301.04,13.56,267.77,13.56L267.77,13.56z"/>
	</g>
	<g>
		<path d="M105.29,273.74c-0.72-0.58-1.34-1.13-1.85-1.67c-0.51-0.54-0.96-1.16-1.34-1.87c-4.49,1.22-7.7,2.54-9.62,3.95
			c-1.92,1.41-2.88,3.05-2.88,4.91c0,1.72,0.5,2.98,1.49,3.78c1,0.8,2.55,1.21,4.66,1.21c1.35,0,3.32-0.22,5.92-0.65l0.43,2.77
			c-1.9,0.41-3.41,0.67-4.52,0.79c-1.11,0.12-2.21,0.18-3.28,0.18c-2.59,0-4.64-0.68-6.13-2.03c-1.49-1.36-2.24-3.27-2.24-5.73
			c0-1.69,0.49-3.24,1.47-4.66c0.98-1.42,2.53-2.71,4.64-3.88c2.11-1.17,5.1-2.34,8.98-3.49c-0.21-0.71-0.47-1.92-0.77-3.64
			c-0.35-2.12-1.01-3.7-1.98-4.73c-0.96-1.03-2.26-1.54-3.9-1.54c-0.96,0-2.11,0.19-3.46,0.58s-2.54,0.86-3.58,1.42l-1.42-2.77
			c1.04-0.67,2.33-1.23,3.89-1.69c1.56-0.46,3.09-0.69,4.6-0.69c5.14,0,8.14,2.83,9.02,8.49c0.33,2.1,0.81,3.8,1.43,5.12
			c0.63,1.32,1.48,2.34,2.56,3.06L105.29,273.74z M96.19,281.09c-0.69,0-1.25-0.21-1.65-0.63c-0.41-0.42-0.61-1.02-0.61-1.79
			s0.2-1.37,0.6-1.79c0.4-0.42,0.95-0.63,1.66-0.63c0.72,0,1.28,0.22,1.67,0.66s0.59,1.03,0.59,1.76c0,0.73-0.2,1.32-0.59,1.76
			C97.47,280.87,96.91,281.09,96.19,281.09z"/>
		<path d="M114.08,243.65h3.58v30.58h-3.58V243.65z"/>
		<path d="M131.55,283.9c-2.74,0-5.16-0.69-7.25-2.06l1.61-2.69c0.86,0.46,1.76,0.84,2.67,1.15c0.92,0.31,1.93,0.46,3.05,0.46
			c1.82,0,3.25-0.49,4.28-1.46c1.03-0.98,1.55-2.28,1.55-3.9v-1.16h-3.95c-2.86,0-5.07-0.79-6.63-2.36
			c-1.57-1.57-2.35-3.85-2.35-6.82c0-3.16,1-5.67,3.01-7.54c2-1.87,4.68-2.8,8.04-2.8h5.27v20.48c0,2.74-0.81,4.88-2.43,6.41
			C136.8,283.14,134.51,283.9,131.55,283.9z M137.42,271.09v-13.25h-1.73c-2.39,0-4.24,0.63-5.57,1.89s-1.99,3.02-1.99,5.29
			c0,2.1,0.46,3.63,1.37,4.61c0.91,0.98,2.29,1.46,4.14,1.46H137.42z"/>
		<path d="M146.76,283.9c-1.28,0-2.65-0.38-4.11-1.14l1.04-2.69c0.65,0.29,1.19,0.47,1.61,0.56s0.88,0.13,1.38,0.13
			c1.21,0,2.15-0.49,2.83-1.47s1.02-2.28,1.02-3.89v-20.68h3.4v20.48c0,2.71-0.62,4.84-1.85,6.39S149.08,283.9,146.76,283.9z
			 M152.03,250.88c-0.69,0-1.25-0.21-1.65-0.63c-0.41-0.42-0.61-1.02-0.61-1.79c0-0.77,0.2-1.37,0.6-1.79
			c0.4-0.42,0.95-0.63,1.66-0.63c0.72,0,1.28,0.22,1.67,0.66c0.39,0.44,0.59,1.03,0.59,1.76c0,0.73-0.2,1.32-0.59,1.76
			S152.75,250.88,152.03,250.88z"/>
		<path d="M173.65,271.66c0.55-0.07,0.98-0.14,1.3-0.24l2.28-0.41c-0.75-0.5-1.36-1.25-1.85-2.24c-0.48-1-0.73-2.08-0.73-3.26
			c0-1.63,0.34-3.01,1.03-4.17c0.69-1.15,1.66-2.04,2.93-2.65c1.26-0.62,2.72-0.92,4.37-0.92c1.93,0,3.55,0.39,4.88,1.18l-0.88,3.01
			c-1.32-0.69-2.63-1.04-3.91-1.04c-1.56,0-2.75,0.41-3.56,1.24c-0.81,0.83-1.22,2.03-1.22,3.6c0,1.01,0.23,1.93,0.7,2.75
			c0.46,0.83,1.08,1.42,1.84,1.79l0.88-0.1c4.06-0.52,6.54-0.79,7.45-0.79v3.26c-1.31,0-3.89,0.25-7.74,0.75
			c-3.85,0.5-6.44,0.89-7.76,1.18V271.66z"/>
		<path d="M194.8,243.65h3.58v30.58h-3.58V243.65z"/>
		<path d="M204.21,271.09h13.4c-0.52-3.6-1.53-6.67-3.01-9.21c-1.48-2.54-3.59-4.73-6.33-6.58l1.3-3.05
			c3.09,1.64,5.61,4.04,7.56,7.21c1.95,3.17,3.25,7.04,3.9,11.62h4.48c0.13,0,0.2,0.05,0.2,0.16v2.79c0,0.13-0.07,0.2-0.2,0.2
			h-21.31V271.09z"/>
		<path d="M225.1,274.23c-0.13,0-0.2-0.07-0.2-0.2v-2.79c0-0.1,0.07-0.16,0.2-0.16h6.23c-0.85-0.54-1.53-1.32-2.04-2.34
			c-0.51-1.02-0.77-2.16-0.77-3.42c0-1.64,0.36-3.08,1.08-4.31c0.72-1.24,1.7-2.19,2.94-2.87s2.59-1.01,4.06-1.01
			c5.21,0,7.82,2.88,7.82,8.65v5.31h5.27v-7.88c0-3.66-0.83-6.35-2.48-8.08c-1.65-1.73-4.25-2.59-7.78-2.59
			c-2.61,0-5.09,0.39-7.45,1.18l-0.92-3.11c2.52-0.84,5.31-1.26,8.37-1.26c4.38,0,7.75,1.18,10.12,3.55
			c2.37,2.37,3.56,5.69,3.56,9.97v11.36H225.1z M241,271.09v-4.7c0-1.98-0.38-3.43-1.15-4.34s-1.9-1.38-3.41-1.38
			c-1.36,0-2.43,0.42-3.19,1.25s-1.15,2.01-1.15,3.55c0,1.72,0.52,3.08,1.55,4.1s2.38,1.52,4.05,1.52H241z"/>
		<path d="M260.56,243.65h3.58v30.58h-3.58V243.65z"/>
	</g>
	<g>
		<g>
			<g>
				<path d="M192.44,185.12H179.5c-1.84,0-3.34,1.49-3.34,3.34s1.49,3.34,3.34,3.34h12.94c2,0,3.62,1.63,3.62,3.62
					s-1.63,3.62-3.62,3.62H157.6c-5.24,0-10.16-2.31-13.51-6.34l-8.33-10.02c-4.47-5.37-10.98-8.52-17.94-8.72v-19.71h12.28
					c6.06,0,11.79,2.32,16.15,6.52l17.98,17.36c1.27,1.23,1.33,3.28,0.13,4.58c-1.22,1.32-3.3,1.41-4.62,0.19l-14.12-12.94
					c-1.36-1.24-3.47-1.15-4.71,0.2c-1.25,1.36-1.15,3.47,0.2,4.71l14.12,12.94c1.9,1.75,4.31,2.61,6.72,2.61
					c2.68,0,5.36-1.07,7.32-3.19c3.64-3.94,3.46-10.18-0.4-13.91l-17.98-17.36c-5.61-5.41-12.99-8.39-20.78-8.39h-12.93
					c-1.26-2.97-4.2-5.06-7.62-5.06h-15.7c-1.84,0-3.34,1.49-3.34,3.34v24.39c0,1.84,1.49,3.34,3.34,3.34
					c1.84,0,3.34-1.49,3.34-3.34V149.2h12.37c0.88,0,1.6,0.72,1.6,1.6v26.74c0,0.88-0.72,1.6-1.6,1.6h-3.46
					c-1.84,0-3.34,1.49-3.34,3.34c0,1.84,1.49,3.34,3.34,3.34h3.46c3.47,0,6.44-2.15,7.67-5.18c5.2,0.03,10.08,2.33,13.41,6.33
					l8.33,10.02c4.62,5.55,11.42,8.74,18.64,8.74h34.84c5.68,0,10.29-4.62,10.29-10.29C202.74,189.74,198.12,185.12,192.44,185.12z"
					/>
			</g>
		</g>
		<g>
			<g>
				<path d="M257.98,92.12c-1.84,0-3.34,1.49-3.34,3.34v22.36h-12.37c-0.88,0-1.6-0.72-1.6-1.6V89.48c0-0.88,0.72-1.6,1.6-1.6h3.22
					c1.84,0,3.34-1.49,3.34-3.34c0-1.84-1.49-3.34-3.34-3.34h-3.22c-3.47,0-6.44,2.15-7.67,5.18c-5.2-0.03-10.08-2.33-13.41-6.33
					l-8.33-10.02c-4.62-5.55-11.42-8.74-18.64-8.74h-34.84c-5.68,0-10.29,4.62-10.29,10.29c0,5.68,4.62,10.29,10.29,10.29h14.25
					c1.84,0,3.34-1.49,3.34-3.34c0-1.84-1.49-3.34-3.34-3.34h-14.25c-2,0-3.62-1.63-3.62-3.62c0-2,1.63-3.62,3.62-3.62h34.84
					c5.24,0,10.16,2.31,13.51,6.34l8.33,10.02c4.47,5.37,10.98,8.52,17.94,8.72v19.71h-12.28c-6.06,0-11.79-2.32-16.15-6.52
					l-17.98-17.36c-1.27-1.23-1.33-3.28-0.13-4.58c1.22-1.32,3.3-1.41,4.62-0.19l14.12,12.94c1.36,1.24,3.47,1.15,4.71-0.2
					c1.24-1.36,1.15-3.47-0.21-4.71l-14.12-12.94c-4.03-3.69-10.32-3.43-14.03,0.59c-3.64,3.94-3.46,10.18,0.4,13.91l17.98,17.36
					c5.61,5.41,12.99,8.39,20.78,8.39h12.93c1.26,2.97,4.2,5.06,7.62,5.06h15.7c1.84,0,3.34-1.49,3.34-3.34v-25.7
					C261.31,93.61,259.82,92.12,257.98,92.12z"/>
			</g>
		</g>
		<g>
			<g>
				<path d="M198.21,174.76c-0.76-1.68-2.73-2.43-4.41-1.67c-1.69,0.74-2.46,2.7-1.73,4.39c0.55,1.26,1.77,2,3.06,2
					c0.44,0,0.9-0.09,1.33-0.28c0.01-0.01,0.06-0.03,0.07-0.03C198.21,178.41,198.97,176.44,198.21,174.76z"/>
			</g>
		</g>
		<g>
			<g>
				<path d="M206.5,169.14c-1.09-1.48-3.19-1.79-4.67-0.7c-1.49,1.09-1.81,3.18-0.72,4.66c0.65,0.89,1.67,1.37,2.69,1.37
					c0.68,0,1.37-0.21,1.97-0.64c0.01,0,0.04-0.03,0.04-0.03C207.29,172.7,207.59,170.62,206.5,169.14z"/>
			</g>
		</g>
		<g>
			<g>
				<path d="M188.88,178.5c-0.38-1.8-2.14-2.95-3.94-2.58c-1.8,0.36-2.97,2.1-2.63,3.9c0.31,1.6,1.7,2.71,3.27,2.71
					c0.21,0,0.42-0.02,0.63-0.06c0.02,0,0.08-0.02,0.1-0.02C188.12,182.07,189.26,180.3,188.88,178.5z"/>
			</g>
		</g>
		<g>
			<g>
				<path d="M213.47,161.89c-1.37-1.23-3.48-1.13-4.71,0.24c-0.02,0.02-0.05,0.06-0.07,0.08c-1.2,1.39-1.05,3.5,0.35,4.7
					c0.63,0.54,1.41,0.81,2.18,0.81c0.93,0,1.85-0.38,2.51-1.13C214.94,165.22,214.83,163.12,213.47,161.89z M211.61,164.7
					l-0.37-0.34l0.4,0.36L211.61,164.7z"/>
			</g>
		</g>
		<g>
			<g>
				<path d="M221.96,143.81c-1.76-0.53-3.63,0.47-4.16,2.23c-0.54,1.76,0.45,3.63,2.21,4.17c0.33,0.1,0.66,0.15,0.98,0.15
					c1.43,0,2.75-0.92,3.19-2.36l0.01-0.05C224.72,146.2,223.72,144.34,221.96,143.81z"/>
			</g>
		</g>
		<g>
			<g>
				<path d="M226.23,126.59c-0.01-0.04-0.02-0.08-0.02-0.13c-0.38-1.8-2.14-2.96-3.95-2.58c-1.8,0.37-2.95,2.13-2.59,3.93
					c0.31,1.59,1.7,2.71,3.27,2.71c0.2,0,0.39-0.02,0.59-0.05C225.35,130.14,226.56,128.41,226.23,126.59z"/>
			</g>
		</g>
		<g>
			<g>
				<path d="M223.17,133.83c-1.83-0.16-3.45,1.19-3.62,3.03c0,0.03-0.01,0.1-0.01,0.13c-0.11,1.84,1.29,3.42,3.13,3.53
					c0.07,0,0.13,0.01,0.2,0.01c1.74,0,3.2-1.34,3.32-3.09C226.36,135.6,225,133.99,223.17,133.83z"/>
			</g>
		</g>
		<g>
			<g>
				<path d="M218.69,153.3c-1.6-0.91-3.64-0.35-4.55,1.26l-0.05,0.08c-0.88,1.62-0.29,3.66,1.33,4.54c0.51,0.28,1.06,0.41,1.6,0.41
					c1.18,0,2.31-0.62,2.92-1.73l-2.9-1.65l2.9,1.64C220.86,156.24,220.3,154.21,218.69,153.3z"/>
			</g>
		</g>
		<g>
			<g>
				<path d="M158.19,89.77c-0.82-1.65-2.83-2.32-4.48-1.49l-0.03,0.01c-1.65,0.82-2.3,2.82-1.48,4.47c0.58,1.17,1.77,1.84,2.99,1.84
					c0.51,0,1.02-0.11,1.5-0.35C158.35,93.42,159.02,91.42,158.19,89.77z"/>
			</g>
		</g>
		<g>
			<g>
				<path d="M167.84,86.99c-0.43-1.79-2.23-2.89-4.03-2.46c-0.02,0-0.06,0.02-0.08,0.02c-1.78,0.46-2.86,2.28-2.41,4.06
					c0.39,1.51,1.74,2.51,3.22,2.51c0.27,0,0.55-0.03,0.83-0.11C167.18,90.58,168.28,88.78,167.84,86.99z"/>
			</g>
		</g>
		<g>
			<g>
				<path d="M149.37,94.58c-1.15-1.43-3.25-1.66-4.69-0.51l2.07,2.62l-2.08-2.61c-1.44,1.15-1.68,3.25-0.53,4.69
					c0.66,0.83,1.63,1.26,2.61,1.26c0.73,0,1.46-0.24,2.08-0.73l0.04-0.04C150.31,98.11,150.53,96.02,149.37,94.58z"/>
			</g>
		</g>
		<g>
			<g>
				<path d="M131.59,118.32c-1.78-0.48-3.61,0.56-4.1,2.34c-0.01,0.03-0.02,0.09-0.03,0.12c-0.43,1.79,0.67,3.59,2.46,4.02
					c0.26,0.06,0.53,0.09,0.79,0.09c1.5,0,2.86-1.02,3.24-2.53C134.4,120.61,133.35,118.8,131.59,118.32z"/>
			</g>
		</g>
		<g>
			<g>
				<path d="M129.46,128.12c-1.84-0.1-3.42,1.3-3.52,3.14c0,0.04,0,0.09-0.01,0.13c-0.05,1.84,1.39,3.37,3.24,3.43
					c0.03,0,0.07,0,0.1,0c1.79,0,3.27-1.42,3.33-3.22C132.68,129.78,131.29,128.22,129.46,128.12z"/>
			</g>
		</g>
		<g>
			<g>
				<path d="M135.79,109.2c-1.63-0.86-3.65-0.23-4.5,1.4l-0.05,0.11c-0.81,1.65-0.13,3.65,1.52,4.46c0.47,0.23,0.97,0.34,1.47,0.34
					c1.23,0,2.4-0.68,2.99-1.85C138.04,112.05,137.41,110.05,135.79,109.2z"/>
			</g>
		</g>
		<g>
			<g>
				<path d="M141.81,101.17c-1.42-1.18-3.52-0.98-4.7,0.44c-0.02,0.02-0.05,0.07-0.07,0.08c-1.14,1.44-0.9,3.54,0.54,4.68
					c0.61,0.49,1.34,0.72,2.07,0.72c0.98,0,1.95-0.43,2.61-1.25C143.42,104.43,143.22,102.35,141.81,101.17z"/>
			</g>
		</g>
		<g>
			<g>
				<path d="M133.23,140.86c-0.32-1.81-2.06-3.02-3.87-2.7c-1.81,0.32-3.02,2.06-2.7,3.87l0.01,0.03c0.29,1.61,1.69,2.73,3.27,2.73
					c0.2,0,0.4-0.02,0.6-0.05C132.35,144.42,133.56,142.67,133.23,140.86z"/>
			</g>
		</g>
		<g>
			<g>
				<path d="M187.36,115.54c-4.34,0-8.36,1.79-11.23,4.81c-2.87-3.02-6.89-4.81-11.23-4.81c-8.54,0-15.49,6.95-15.49,15.49
					c0,4.61,2.03,8.95,5.58,11.9c0.02,0.02,0.04,0.04,0.07,0.05l19.01,15.05c0.61,0.48,1.34,0.72,2.07,0.72
					c0.74,0,1.47-0.24,2.08-0.73l19.81-15.78c0.1-0.08,0.19-0.16,0.28-0.25c2.94-2.93,4.55-6.82,4.55-10.97
					C202.85,122.48,195.9,115.54,187.36,115.54z M193.71,137.15l-17.59,14.01l-16.9-13.38c-2-1.68-3.15-4.14-3.15-6.75
					c0-4.86,3.96-8.82,8.82-8.82c3.58,0,6.78,2.14,8.15,5.45c0.52,1.25,1.73,2.06,3.08,2.06s2.56-0.81,3.08-2.06
					c1.37-3.31,4.57-5.45,8.15-5.45c4.86,0,8.82,3.96,8.82,8.82C196.18,133.33,195.31,135.5,193.71,137.15z"/>
			</g>
		</g>
		<g>
			<g>
				<circle cx="93.84" cy="182.47" r="3.32"/>
			</g>
		</g>
		<g>
			<g>
				<circle cx="257.98" cy="84.55" r="3.32"/>
			</g>
		</g>
	</g>
</g>
</svg>
